<?xml version='1.0' encoding='utf-8'?>
<svg xmlns="http://www.w3.org/2000/svg" enable-background="new 0 0 1903.709 1668.914" version="1.1" viewBox="0 0 1903.709 1668.914">
		<path d="m1484.3 36.018c-1.962-0.832-3.783-1.421-4.878-1.508-3.046-0.24-6.485 0.338-9.622 1.508h14.5z" fill="none"/>
		<path d="m1524.4 1241.7c3.138 13.313 14.109 10.717 24.427 15.062 5.104 2.149 8.623 3.066 14.29 3.162 5.064 0.086 7.112-0.818 10.537-1.575 1.339-0.296 2.893-0.571 4.917-0.755 8.977-0.816 13.547 4.907 19.272-4.66 5.324-8.896 27.557-4.449 36.224-3.495 8.308 0.914 12.184 10.152 21.934 10.152 5.039 0 24.737-16.028 27.085-20.803 0.432-0.879 0.755-1.807 1.007-2.769h-163.18c1.571 1.358 2.868 3.032 3.492 5.681z" fill="#20603D"/>
		<path d="m1749.7 1237.6c8.049 7.347 13.792 7.228 18.875 4.103 2.31-1.42 4.484-3.462 6.676-5.706h-27.421c0.635 0.519 1.262 1.048 1.87 1.603z" fill="#20603D"/>
		<path d="m43.528 1277.3c0.734 5.673-0.845 10.568 1.579 16.06 1.722 3.9 4.407 7.386 7.809 9.902 7.69 5.688 12.669 11.263 14.555 20.896 0.747 2.091-0.909 12.736-1.427 15.386-2.003 10.228-12.021 6.471-19.026 11.318-3.02 2.09-5.17 4.778-6.813 8.071-1.873 3.755-0.451 6.156 0.914 9.321 0.992 2.3 4.783 7.017 6.314 9.569 2.448 4.079 5.11 8.112 8.724 11.151 2.052 1.725 5.169 2.707 7.726 3.412 5.081 1.401 4.356 4.093 4.57 8.821 0.212 4.691 4.313 8.168 4.32 12.565 4e-3 2.809 0.25 5.114-0.332 7.989-1.088 5.361-1.548 6.434 1.329 11.4 3.824 6.6-3.439 14.008 0.997 18.723 4.883 5.19 4.546 12.102 3.739 18.973-0.391 3.326-4.806 3.934-3.656 7.324 0.955 2.816-1.703 5.116 0.332 8.238 3.1 4.755 4.205 0.16 6.979 2.746 3.534 3.294 3.743 9.265 6.979 13.313 3.304 4.133 7.226 0.662 11.632 1.498 1.446 0.274 1.971 1.582 3.489 1.582 2.046 0 3.883-2.543 5.733 0.25 2.294 3.461-0.47 7.656 5.982 7.656 5.559 0 8.331-1.363 12.13 3.744 0.909 1.221 5.972 6.421 7.062 6.574 1.916 0.269 8.256-11.776 13.127-8.406 1.527 1.056 2.366 3.681 4.237 4.078 3.704 0.784 7.43-1.336 9.638 2.663 1.784 3.231 4.224 1.711 6.812 3.661 7.195 5.423 12.346 12.376 18.445 18.89 1.932 2.063 3.434 4.494 5.151 6.74 1.319 1.727 3.613 3.615 5.235 5.076l3.987-10.485c5.11-5.29 10.736-23.159 9.721-30.54-0.616-4.483-2.95-10.921-4.819-14.979-2.412-5.236-1.753-14.066-1.08-19.638 5.366-7.429 5.014-16.317 4.237-25.214-1.333-15.278 13.095-26.884 26.337-30.457 9.343-2.521 17.295-4.179 26.67-1.082 8.792 2.906 13.096 8.955 21.186-0.666 2.001-0.667 4.722-4.452 7.145-3.245 4.244 2.112 9.398 8.821 13.21 12.149 7.776 6.787 15.954 12.123 26.42 12.898 11.169 0.828 15.485 1.503 24.726 6.739-0.016 0.021-0.032 0.048-0.05 0.085 5.124 2.555 14.835 1.235 20.605 1.498 23.953 1.094 54.483 7.135 74.442 21.386 3.283 1.001 11.348 2.001 9.804 7.24-2.038 6.909-3.214 17.958-0.914 24.881 2.564 7.715 13.375 17.305 19.359 22.551 3.409 7.397 9.278 10.165 5.732 19.555-3.093 8.191-14.773 11.351-16.533 18.223-2.344 9.154 3.474 20.683 9.638 27.377 6.224 11.222-3.645 20.126 5.566 28.627 7.024 6.481 12.388 12.312 22.682 10.818 8.192-1.188 13.527-1.139 16.783-9.486 6.704-17.185 16.021-4.547 26.42-12.815 12.495-9.935 17.14-3.678 29.245 2.663 9.145 3.726 15.461 3.245 25.424 3.245 11.703 0 21.301 8.514 31.156 14.229 12.774 7.407 23.274-4.702 31.488-13.481l11.386-9.653c8.222 7.269 20.581 10.95 31.651 2.081 4.569-3.661 9.139-7.324 13.708-10.984 5.883-4.715 10.721-5.921 18.528-6.49 9.966-0.727 15.975 8.304 22.764 13.397 4.861 3.646 11.584 4.522 16.617 7.906 3.71 2.496 7.422 4.994 11.133 7.489 6.366 4.282 11.894 0.422 18.445 3.328 6.31 2.8 12.177-2.298 18.112-4.411 0.213-0.076-0.433 0.464-0.25 0.333 8.83-6.314 5.298-0.083 12.878-0.083 6.312 0 10.347-20.709 10.884-25.63 0.386-3.536 4.736-4.296 4.736-7.739 0-13.169 2.309-6.653 10.135-6.408 7.644 0.24 5.967-4.254 9.97-8.654 2.614-2.874 17.53 1.113 17.53 5.492 0 10.576 13.017 12.964 21.186 10.069 7.846-2.78 12.526-10.954 19.691-15.146 7.54-4.411 28.687-4.103 32.236-12.398 1.706-3.988 1.393-8.844 3.157-13.148 1.824-4.45 8.08-7.285 11.216-11.068 2.33-2.811 3.504-7.629 4.486-11.067 1.496-5.235 5.39-11.216 9.222-15.062 3.195-3.206 2.601-10.283 4.321-14.313 1.297-3.041 2.545-6.665 1.994-9.569-0.943-4.967 3.143-8.592 5.067-13.148 1.21-2.865-2.983-6.304-4.071-8.905-1.817-4.341-0.331-9.848-0.331-14.479 0-8.353 0.905-16.54 0.748-24.881-0.07-3.75-2.088-8.13-3.406-11.65-2.13-5.684-4.614-11.699-5.65-17.641-1.163-6.67 8.507-15.112 10.054-21.552 1.915-7.975-0.258-12.964 2.824-21.053 5.012-13.154 12.472-14.497 23.679-21.053 9.461-5.536 4.099-17.765 4.569-26.545 0.244-4.569-2.977-12.66-4.486-16.976-2.475-7.071-2.356-17.682-1.745-25.131 0.713-8.678-5.401-12.369-5.401-21.053 0-2.281-0.489-4.529-1.207-6.762h-957.75c-10.829 11.469-16.452 24.856-21.498 41.297z" fill="#20603D"/>
		<path d="m1150.3 1266.9c6.798 7.544 27.516 18.098 37.969 15.478 4.72-2.854 9.25-6.321 15.038-5.992 5.85 0.332 15.032-5.892 17.946-10.901 2.302-3.958 3.778-7.44 5.4-11.816 2.237-6.034 7.42-10.42 9.804-16.227 0.513-0.434 0.971-0.92 1.402-1.436h-119.34c8.36 12.583 21.578 19.58 31.776 30.894z" fill="#20603D"/>
		<path d="m279.4 837.94l21.186 54.422 12.961 51.261c1.217 4.818 3.799 10.426 3.904 15.394 3.958 19.882 6.524 48.822-4.569 66.987l-31.738 64.159c-4.463 12.987-10.273 24.102-18.445 35.116-6.598 8.892-15.176 11.895-25.423 14.147l-35.31 6.324c-10.19 1.825-20.252 2.535-29.993 6.074-5.509 2.002-6.57 5.268-9.72 9.57l-12.131 28.875c-3.888 9.254-7.78 10.943-16.948 13.232-4.353 1.086-5.149 4.172-3.489 7.822 2.108 4.637 2.651 11.46-2.742 13.397-5.255 0-7.718 3.34-14.457 1.665l-12.712-3.162c-6.934-1.725-18.235-0.911-24.094 3.412-4.049 2.988-7.563 6.107-10.655 9.381h957.76c-1.52-4.728-4.078-9.385-5.274-14.124-1.563-6.196 4.324-9.48 7.062-14.063 3.319-5.554-1.972-16.091 2.327-22.302 0.901-1.304 2.332-1.467 3.044-2.384 6.018-1.782 14.684 8.319 19.72 10.04 1.3 0.444 2.276 1.542 3.414 2.314 0.792-0.544 5.852 2.122 7.305 2.429 6.12 1.296 12.096 0.832 18.361 0.832 8.109 0 17.405 3.876 22.599 10.235 5.18 6.343 13.02 16.719 15.62 24.548 0.491 0.85 1.007 1.672 1.54 2.475h119.34c2.309-2.766 3.718-6.498 7.238-9.048 4.561-3.305 16.491-3.079 16.7-9.737 0.306-9.787 3.634-30.504 16.7-23.133l17.697 9.985c7.486 4.223 15.777 4.811 24.259 5.159-0.248-0.062-0.27-0.016-0.166-0.25l43.785 1.166c6.363 0.169 13.568 1.457 19.857 0.666 4.533-0.571 10.223-3.898 14.083-4.585 5.019-1.466 5.664-11.967 6.604-15.636 2.642-10.295 16.445-21.93 27.667-20.388 6.545 0.899 9.244 7.158 14.041 10.235 7.413 4.754 13.568 5.175 20.521-1.165 2.298-2.095 9.429-6.202 11.382-1.581 2.703 6.395-0.274 13.553 2.576 19.721 1.39 3.009 3.659 5.584 5.317 8.405 1.956 3.33 1.208 8.174 3.739 11.151 3.911 4.6 10.656 1.533 15.869 3.578 4.746 1.862 4.328 4.26 6.896 8.238 2.301 3.565 5.685 4.952 8.305 7.218h163.18c1.126-4.305 0.78-9.281 1.985-13.542 1.935-6.838 8.77-9.875 14.954-10.984 13.497-2.42 15.677-0.332 26.088 9.653 6.007 5.761 14.031 9.4 20.728 14.873h27.421c4.769-4.882 9.625-10.722 16.157-13.209 13.239-5.043 19.949-7.455 25.423-21.802 2.947-7.723 10.346-13.322 16.783-17.975 12.922-9.342-5.871-13.288 3.157-26.129 5.673-8.068-4.794-26.392-4.985-38.279-0.071-4.453-3.672-7.21-4.985-11.483-1.24-4.038 0.735-10.125 2.492-13.647 2.987-5.987-2.543-15.35-1.495-22.468 1.842-12.509 19.089-17.459 9.471-32.787-7.805-12.437 8.456-20.9 6.813-35.948-0.654-5.991 9.374-7.747 13.46-12.315 7.009-7.838 5.464-16.622 3.655-25.796-1.079-5.477 2.148-9.324 3.192-14.519l-9.337-13.529-62.231-100.11h-1513.4c1e-3 0.641 3e-3 1.281 3e-3 1.924z" fill="#FAD201"/>
		<path d="m1463.3 39.753c-3.082 2.696-6.366 8.541-10.053 10.319-4.078 1.966-8.107-1.157-12.213-1.664-3.666-0.453-7.686 0.152-11.382 0.333-12.05 0.594-21.937-10.872-35.062-7.24-10.112 2.798-12.756 7.711-13.21 16.892-0.303 6.13-2e-3 11.18-2.908 16.061-3.122 5.244-3.834 6.848-3.074 13.148 0.68 5.644 0.208 12.084-0.405 18.4l-7.405 1.572c-4.763 3.179-9.2 7.367-14.041 10.319-3.911 2.386-8.988 4.618-11.714 8.405-5.825 8.089-5.091 18.177-8.558 26.961-1.884 5.447-7.255 8.12-9.388 13.065-1.846 4.277-2.706 8.762-5.151 12.732-6.124 9.946-16.308 10.028-25.008 15.894-6.835 4.608-4.449 11.019-9.804 15.146-3.613 2.555-9.667 12.089-10.385 16.393-0.916 5.482-12.223 3.231-16.035 3.162-14.028-0.254-27.329 1.894-29.744 17.724-0.88 5.769 0.505 18.18-5.982 20.471-6.285 8.4-1.32 16.744-4.237 25.547-2.518 7.596-17.701 6.748-22.848 13.647-3.341 4.479-1.856 13.409-7.228 15.894-9.269 4.287-19.326-0.855-28.83-1.83-6.874-0.706-7.874 2.927-13.293 5.409-1.216 6.105-4.182 12.385-9.887 15.394-4.259 2.245-13.16 4.641-16.118 7.988-4.649 5.264 0.951 26.635-9.222 25.631-8.689-0.859-17.444-2.612-26.005 0.083-4.102 1.292-9.92 8.716-13.792 8.072-9.771 7.104-15.673 19.738-27.667 23.882-8.544 2.952-15.973-4.218-24.011 1.997-3.83 2.96-9.782 10.213-15.205 9.569-6.822-0.81-13.948-7.778-19.358-11.65-3.682-2.634-17.585-24.163-17.282-28.043-1.683-4.739-4.818-10.095-4.735-15.062l0.249-14.812c0.111-6.666 0.578-22.487-2.99-27.96-3.075-4.718-12.967-6.925-14.54-11.65-9.953-9.198-6.842-11.227-8.973-23.05-0.986-5.469-13.078-8.655-18.195-8.655-13.762 0-28.422 10.328-28.581 24.549l-0.166 14.895c-0.105 9.414-22.367-12.772-25.34-15.228-3.141-2.595-6.873-1.921-10.302-3.328-15.74 0.554-27.671-4.35-42.455 2.829-11.149 5.414-17.768 16.676-24.427 26.628-3.02 4.515-13.987 6.055-19.358 5.159-9.604 2.656-20.134 2.565-29.993 3.579l-25.091 2.58c-5.193 0.534-9.979-1.129-14.869-2.497-0.615 1.793-0.635 5.941-2.33 7.073-1.627 1.085-8.503-5.469-10.635-6.407-2.242-0.985-7.319-1.838-9.388 0-1.227 1.088-1.952 3.915-4.404 2.329-3.368-2.178-4.723-0.922-6.148 2.497-0.588 1.412-2.478 1.338-3.656 2.081-1.399 0.881-2.259 4.104-2.99 5.575-2.131 3.471-10.793 6.888-14.706 6.74-8.823-0.333-4.045 6.949-6.73 10.984-2.225 3.343-5.687 3.151-6.398 8.322-0.912 6.648-6.009 0.61-8.225 0.499-6.789-0.34-1.104 9.404-7.061 10.319-3.32 0.51-5.035 2.44-5.982 5.658-1.191 4.042-1.728 6.971-6.397 7.572l-36.723 45.601-73.279 1.914c-5.768 5.33-6.956 10.288-7.976 17.808-1.215 8.963-6.156 10.345-13.044 14.063-5.017 2.707-7.597 7.355-9.638 12.566-1.009 2.575-1.331 6.853-3.074 8.904-0.627 10.605-8.377 11.012-11.299 20.138-3.393 10.594-11.447 8.84-14.872 17.724-0.987 2.56-4.315 3.797-6.646 4.91-6.761 3.23-15.706 6.959-20.604 12.898-2.343 2.84-4.116 8.23-6.813 10.236-1.331 5.313-3.009 9.751-4.985 14.728-1.808 4.551-7.228 6.303-10.053 9.653-2.901 3.439 0.166 19.441 0.166 24.465 0 5.04-4.357 13.563-8.723 15.977l-51.512 69.733c-3.107 5.718-8.779 11.408-12.712 16.726l-9.72 13.148c-7.137 9.653-9.922 20.695-15.038 30.956-6.739 24.465-6.104 48.192-6.068 73.217h1513.4l-2.579-4.149c-4.423-0.894-7.668 4.894-11.798 0.999-10.037-9.466 9.412-16.903 15.287-18.474 6.281-1.679 12.13-12.834 12.13-19.139 0-4.314-3.58-11.236-2.659-15.146 0.79-3.355 6.158-7.471 8.475-10.152 3.148-3.642 5.317-9.856 4.154-14.812-1.423-6.067-9.325-8.108-7.81-14.479 0.997-4.194 4.395-7.508 3.825-11.816-0.426-3.222 0.197-6.169 0.333-9.32 0.213-4.921-3.257-13.938-4.652-18.973-2.669-9.626 4.028-15.704 5.317-24.465 1.573-10.687-4.668-16.383-4.984-26.629-0.282-9.154 7.643-16.914 7.643-26.629 0-9.024-9.344-21.867-5.982-30.29 1.146-2.873 4.211-4.89 6.672-6.93l-78.473-127.43-6.463-74.007-49.35-45.601-44.034 0.832-5.386-15.716c-4.242-1.677-8.012-3.085-10.773-4.053-1.733-0.606-1.873-2.795-2.652-4.64-0.248-0.587-1.124-3.161-1.657-3.646-0.977-0.889-6.746-13.339-9.612-15.909-5.909-5.298-20.657-2.805-28.505-3.314-9.077-0.59-15.246-35.221-15.246-43.42 0-13.223-11.529-22.116-10.275-35.465 0.423-4.51-12.549-14.256-15.923-17.63-2.997-2.997-4.525-6.519-6.148-10.319-2.218-5.193-0.734-11.256-1.329-16.725-0.356-3.273-1.443-6.421-1.579-9.737-0.326-7.929-4.227-11.085-8.142-18.224-7.178-13.087-13.153-5.741-23.014-5.741-12.025 0-14.305-6.184-11.549-15.644 1.258-4.318-1.238-9.55 0.057-13.502 0.431-1.316 6.045-3.776 6.045-5.412 0-8.342-9.254-5.815-14.16-11.541-7.199-8.403-8.409-16.389-4.403-24.881 3.752-7.956 10.538-18.453 19.224-22.553-1.18-1.623-5.077-3.849-8.531-5.314h-14.5c-2.467 0.913-4.744 2.194-6.5 3.73z" fill="#00A1DE"/>
	<g fill="#E5BE01">
		<path d="m1469.8 509.28c-36.245 0-65.733 29.487-65.733 65.734 0 36.245 29.487 65.733 65.733 65.733 36.245 0 65.733-29.487 65.733-65.733 0-36.247-29.487-65.734-65.733-65.734z"/>
		<path d="m1541.8 584.49l162.13-9.475-162.13-9.475 154.16-51.115-159.06 32.811 135.67-89.271-145.15 72.86 107.94-121.34-121.34 107.95 72.86-145.15-89.271 135.67 32.811-159.06-51.115 154.16-9.475-162.13-9.475 162.13-51.115-154.16 32.811 159.06-89.271-135.67 72.86 145.15-121.34-107.94 107.94 121.34-145.15-72.86 135.67 89.271-159.06-32.811 154.16 51.115-162.13 9.475 162.13 9.475-154.16 51.115 159.06-32.811-135.67 89.271 145.15-72.861-107.94 121.34 121.34-107.94-72.86 145.15 89.271-135.67-32.811 159.06 51.115-154.16 9.475 162.13 9.475-162.13 51.115 154.16-32.811-159.06 89.271 135.67-72.86-145.15 121.34 107.94-107.94-121.34 145.15 72.861-135.67-89.271 159.06 32.811-154.16-51.116zm-71.968 63.115c-40.026 0-72.589-32.563-72.589-72.589s32.563-72.59 72.589-72.59 72.589 32.564 72.589 72.59-32.563 72.589-72.589 72.589z"/>
	</g>
</svg>