<?xml version='1.0' encoding='utf-8'?>
<svg xmlns="http://www.w3.org/2000/svg" enable-background="new 0 0 2200.732 1663.847" version="1.1" viewBox="0 0 2200.732 1663.847">
	<path d="m1482.7 1631.6c0.667 0.251 1.234 0.448 1.68 0.224 0.148-0.074 0.276-0.149 0.412-0.224h-2.092z" fill="none"/>
	<path d="m1484.6 1618.1c4.421-6.219 27.484-21.839 34.839-24.991 6.217-2.665 16.428-0.416 23.227-1.24l37.789-4.579c7.511 0 17.125-4.045 23.797-7.44l24.369-12.401 5.137-2.48 27.604 20.413 57.874 4.769 87.001-83.941 76.151-75.356 145.05-60.308c5.356-2.014 4.886 2.121 8.781 2.121 9.856 0 18.031-15.262 28.177-15.262 1.806 7.307-5.521 15.109-5.521 21.939 4.943 1.001 9.226 0.954 14.374 0.954 3.665 0 8.129-0.129 11.708 0.477 1.49 0.252-2.057 10.124-2.856 12.019-2.954 7.007-0.125 10.545 1.618 16.978 0.182 5.92 9.046 15.641 13.137 19.555 2.462 2.358 5.006 4.511 7.9 6.2 6.291 3.669 7.495-4.131 11.327-8.108 5.517-5.728 4.208-5.176 7.901 0.668 5.128 8.11 7.881 4.435 15.706 4.198l18.847-0.573-23.702-27.09-0.285-15.548c1.251-13.86-3.59-29.34 0.19-42.448 1.337-4.636 3.973-4.475 6.853-7.727 3.113-3.516-2.842-11.248-4.092-14.976-1.973-5.886-0.446-11.499 4.092-15.739 3.344-3.125-5.395-2.736-6.758-2.385-9.637 0-11.25-6.214-18.086-9.825-5.477-2.893-12.959 3.647-18.085 1.24-3.812-1.79-2.839-6.244-8.757-7.154-8.106-1.247-10.277-2.172-17.8 1.908-6.045 3.28-20.355 17.621-27.7 12.21-6.403-4.718-0.054-20.495-1.713-26.995-0.338-1.326-3.686-4.375-3.142-3.72-4.792-5.772-15.346-12.096-21.798-16.216-9.53-6.087-5.997-4.642-5.711-13.641 0.431-13.562-16.967-24.329-20.466-36.438-8.113-6.106 2.213-35.174-6.187-39.872-4.364-2.439-2.846-6.749-2.285-10.97 0.197-1.482 0.266-3.08 0.231-4.72h-1109.7l-273.85 158.11c1.445 4.219 2.926 7.703 5.177 11.921 3.121 3.529 5.694 7.158 9.424 10.111 2.39 1.893 5.071 3.353 7.424 5.151 1.606 1.226 2.332 4.033 3.998 5.437 1.705 1.435 6.211 4.81 6.949 6.868 1.28 3.564-0.095 6.422-0.095 10.016 0.164 5.636 8.679 7.924 10.28 14.022 4.947 18.844 18.996 4.345 27.319 12.687 4.534 4.543 7.061 9 12.946 12.114 5.056 2.676 12.825 4.326 10.09 12.591-0.542 1.484-3.045 8.019-2.666 9.253 0.729 2.372 5 15.508 6.378 15.929 5.587 1.708 19.974 17.69 22.94 10.397 3.075-7.563 4.832-1.685 8.662-0.572 4.005 1.166 7.397 0.858 11.518 0.858 0.045 0.139 0.034 0.075 0.19 0.191 0 3.393 2.737 28.358 8.757 20.603 1.465-1.888 9.536-3.207 8.662 1.621-1.066 5.883 5.726 10.303 9.995 13.164 3.247 5.351 8.929-0.132 11.137-3.148 2.872-3.92 17.87 12.509 22.179 14.498 6.327 2.92 13.992 1.913 17.705-4.006 4.402-7.02 8.295-5.629 13.897-9.92 6.483-4.967 2.39-11.191 13.137-10.778 8.577 0.33 10.421-8.464 11.994-15.167 4.558-4.092 7.714-10.11 15.515-10.11 1.389 7.008 1.204 14.117 10.375 14.117 6.559 0 12.789 1.606 19.419 1.049l13.612-1.144c4.331-0.364 5.497 8.559 10.09 10.11 2.467 0.834 5.581-0.727 7.996 0.286 2.559 1.072 2.85 4.5 4.284 6.295 1.832 1.658 16.038 15.221 17.895 7.345 1.577-6.692-3e-3 -9.198 7.9-6.868 5.674 1.672 9.633-1.77 10.375-7.25 0.353-2.602-0.551-8.871 3.141-8.871 7.56 0 11.288-0.97 9.9-9.634-0.423-2.648 1.868-4.307 3.712-5.723 4.036-3.097 2.976-3.752 4.284-8.013-0.641-3.433-3.179-5.911-0.571-8.68 1.009-1.072 3.062-7.746 4.76-5.055 3.44 5.454 8.366 2.213 13.802 5.246 3.882 2.165 10.553 2.739 14.945 4.292 4.831 1.709 10.444 11.456 15.42 9.73 4.239-1.47 3.643-0.04 6.282 2.098 1.847 1.495 5.459 1.543 7.71 2.099 0 1.934-3.765 6.462-4.283 9.443-0.848 4.87-1.169 10.807-0.761 15.739-1.54 3.709 2.591 12.536 6.188 14.308 3.35 1.649 7.844-4.403 11.994-2.575 2.628 1.158 7.339 4.641 9.614 6.487 3.378 2.742 0.305 4.34-1.047 7.058-1.605 3.229 2.122 14.9 6.282 12.497 7.197-4.156 5.781-0.849 7.52 3.434 2.5 6.151 8.235 13.308 15.42 13.545 10.32 0.338 8.567-1.154 8.567 9.634 0.064 2.056 2.806 2.575 4.57 2.575 0.701 5.707 2.312 9.74 4.188 15.167 1.994 5.773 2.383 5.909 7.329 2.671 7.083-4.637 5.252-0.33 8.948 2.957 5.211 4.631 10.991 1.619 16.467 8.49 5.452 6.841 8.687-1.686 11.042 0.858 2.071 2.237 0.956 7.493 5.33 7.918 4.604 0.446 9.352-6.73 12.66 0.286 2.525 5.353 3.522 11.08 3.522 16.978-0.347 0.232-0.446 9.941-0.666 11.447-0.421 2.873-0.857 5.682-0.857 8.585 1.688 0.558 3.998 1.896 6.377 2.575 4.119 1.176 4.234 3.677 7.9-0.859 6.16-7.619 6.72 1.853 12.755-1.526 3.089-1.729 3.733-5.73 6.95-7.44 6.651-3.539 8.376 0.787 8.376 6.486 0 6.1 5.791 7.01 9.233 10.97l5.044 6.295c4.127-3.464 4.739-8.159 7.046-12.592 1.362-2.615 8.276-18.092 11.612-17.456 3.153 0.602 6.704 2.824 9.615 0.095 2.805-2.629 3.824-6.287 8.567-6.677 9.452 0 9.382-9.157 17.8-9.157 6.376 0 17.854-1.388 23.606 0.381 3.543 1.091 10.971 7.921 14.278 10.302 5.207 3.747 19.304 12.114 25.701 12.114 7.132 0 19.127-12.423 27.605-14.118 5.385-2.914 11.331-2.6 16.372-5.342 4.18-2.274 2.976-6.497 4.117-9.947 1.893 1.13 3.795 3.48 6.21 5.414 4.949 3.961 10.845 8.568 14.72 14.071 2.621 3.721 4.07 8.179 4.842 11.161 0.885 3.416 1.808 6.289 2.02 8.3 0.239 2.281 0.072 4.111 4.848 4.24 4.297 0.118 8.672-0.504 12.925 0.083 1.497 0.205 1.709 1.125 2.069 1.744 0.526 0.904 0.812 1.689 1.237 2.939 0.249 0.73 1.985 2.816 2.412 3.774 0.583 2.679 5.853 2.141 10.741 2.923 2.025 0.324 3.824-0.242 5.314-0.049 0.663 0.086 1.263 0.322 1.799 0.524h2.092c7.482-4.113-3.229-9.299-0.241-13.502z" fill="#078930"/>
	<path d="m873.61 1151.6h1109.7c-0.096-4.555-1.048-9.452-2.707-13.212-2.147-4.871-1.721-3.434 3.142-3.434 4.685 0 1.296-6.786 1.427-9.348 2.204-8.754 10.586-21.344 2.856-27.854-5.107-4.3-17.384-21.498-22.94-20.89-2.694 0.295-19.92 0.998-21.037-0.668-1.117-1.667-2.106-3.186-3.039-4.595h-928.84l-138.56 80.001z" fill="#fff"/>
	<path d="m1827.3 591.6l-2.039-21.912-0.471-34.149-26.207-0.091-0.484-23.848h-890.16c-4.388 3.408-8.861 8.085-12.838 12.403l117.08 67.597h815.11z" fill="#fff"/>
	<path d="m1798 508.74c1.232-5.37 2.51-17.488 6.663-21.176 6.285-5.582 6.347-7.949 7.235-16.693 0.403-3.964 6.404-7.894 4.188-12.591-1.758-3.73-2.064-16.335-0.476-19.936 0-6.501-4.569-9.254-4.569-15.739 0-9.126-5.674-6.094-12.185-8.108-3.605-1.115-3.201-5.44-4.95-8.203-3.131-4.949-7.883-10.368-10.089-15.548-4.171-9.798-13.287-12.096-19.705-19.364-1.639-0.937-3.731-5.347-5.615-6.963-2.203-1.888-4.913-3.939-6.759-6.105l-11.613-13.641c-5.204-6.111-14.497-14.653-17.899-21.843l-47.403-12.973 7.805-17.932-9.328-63.338-14.088-84.131 8.567-23.657 11.994-64.1 8.286-21.366-102.08-3.405c-0.039 0.787-0.059 1.603-0.059 2.451 0 6.389 4.044 10.627 5.33 16.406 1.433 6.442-1.987 16.154-3.427 22.321-0.983 4.218-1.107 8.364-0.729 12.29l-113.68 0.205c2.542 5.444 8.951 9.202 12.947 13.45 4.128 4.392 9.568 9.453 14.374 13.068 7.82 5.88 19.019 13.965 24.461 22.034l-1.045 77.551 5.997 24.896c0.447 1.861 7.022 12.735 8.757 13.163 0.329 1.305-0.105 0.828-0.57 2.004-11.286 4.504-23.101 21.334-31.412 30.238-6.786 9.246-15.587 18.934-24.369 26.327-6.144 5.174-17.431 7.753-24.654 12.686-11.899 8.128-14.99 23.832-22.75 35.294-4.527 10.39-10.248 22.565-17.896 30.905l-19.419 21.176c-4.122 4.495-8.6 11.474-13.135 15.453-11.675 11.692-22.01 24.387-31.222 37.964-5.105 7.524-19.059 28.558-27.987 30.047l-71.201 1.144-11.994 5.724-8.186-7.059-58.064-45.596-11.232-6.104-71.201-45.977-11.422-0.764-72.152 38.346-0.096 60.953-82.148-0.286c-1.867 0.461-5.018 4.578-6.092 6.105-2.107 2.991-4.977 5.56-7.234 8.393-1.148 1.44-3.294 1.887-4.188 3.149-0.786 0.524-1.578 1.103-2.373 1.72h890.16l-0.059-2.865z"/>
	<path d="m1427.9 831.6l-415.69 240h928.84c-4.002-6.046-6.944-10.047-14.285-14.865-7.192-6.304-18.878-2.59-24.083-7.345-5.692-5.2 0.615-14.374-2.665-20.031-3.144-5.425-8.231-8.394-13.135-12.019-8.998-6.65-17.948-5.008-27.034-9.062-7.13-3.181-16.226-15.228-14.469-23.465 0-14.307-12.418-6.675-19.229-16.121-2.142-2.972-6.242-3.927-9.614-5.342-2.149-0.903-2.01-8.446-2.19-10.588l-1.522-18.124c-0.391-4.644-14.661-12.584-17.705-16.883-3.018-4.819-8.187-12.295-14.278-13.544-7.113-1.46-12.825 0.387-16.372-7.631-5.155-11.657-19.411-19.927-32.364-16.979-13.64 3.105-12.944-11.282-20.847-9.729-15.717 3.087-24.441 9.95-37.028-2.67-4.779-1.6-7.948-5.072-13.422-5.343l-15.325-0.763c-11.863-0.589-10.52-6.246-15.516-15.834-3.238-6.21-2.69-9.515 2.285-14.499 4.734-4.745 9.822-12.696 13.612-18.313 2.283-3.383 7.738-5.676 9.328-8.585 17.639-8.157-1.407-15.006 6.378-20.795 11.309-8.407-4.896-6.892-1.808-15.453 2.045-5.673-2.731-8.318-1.713-11.637 1.267-4.127 11.522-8.467 14.372-12.496 4.8-6.782 20.268 3.908 29.699-0.286 5.526-2.457 16.586-1.91 20.275-5.438 3.242-3.102 8.746 9.464 16.087 3.911 7.453-5.639 10.638 3.261 14.85 10.111 2.987 4.856 17.01 7.181 20.466 2.671l6.945-9.062 25.129-2.099 24.586-25.722 2.447-66.041-5.576-59.93h-815.11l415.69 240z" fill="#DA121A"/>
	<path d="m1012.2 1071.6l415.69-240-415.69-240-117.08-67.597c-1.41 1.53-2.76 3.017-4.018 4.382-3.905 4.238-13.623 9.267-15.706 14.022-1.618 3.693 0.518 7.417-3.047 10.302-3.786 3.065-3.485 12.503-7.328 14.118l-125.27 2.67-23.514-50.269-65.49-1.717c-12.133 2.132-26.77 0.095-39.217 0.095h-39.408c-7.858 0-15.711 5.343-22.75 5.343-0.708 0.436-0.749 0.364-1.713 0.571l-28.176 10.874c-9.938 3.836-19.568 7.799-30.174 4.77-16.361-4.674-45.278-6.07-57.494-18.314-7.586-3.801-11.619-21.435-14.754-28.807-3.987-9.381-5.265-20.98-10.567-29.856-1.6-2.677-5.606-2.604-6.949-5.818-8.742-6.068-12.294-17.548-17.61-26.422-5.21-8.7-13.997-14.382-24.268-15.358l0.281-27.949c0-5.856 1.331-16.551-6.092-18.41-7.093-1.777-15.31 1.086-22.084 3.434-5.635 1.953-9.635 1.145-15.325 1.145-9.621 0-15.982 5.238-25.035 6.868-6.578 2.06-16.128-0.822-23.511 0.476-6.727 1.182-13.612 6.96-19.8 6.296l-13.326-1.431c-5.399-0.579-10.562 3.747-15.325 2.575-2.205-0.543-3.792-2.773-6.378-1.716-7.357 3.01-8.087 14.615-12.279 20.222-4.363 6.568-8.286 8.402-3.618 16.025 2.991 4.887-0.681 9.347-3.331 13.641-5.425 8.788-11.469 21.41-18.848 28.807-2.401 2.409-6.771 3.044-9.899 4.388-6.161 2.798-4.525 11.322-8.948 16.026-4.672 4.969-4.935 8.584-13.136 8.584-3.67 0-1.094 7.383-0.667 9.444 1.024 4.942 0.095 9.27 0.095 14.117 0 6.128 2.76 11.691 2.76 18.219-3.212 9.683-4.966 9.97-13.612 15.262-5.196 3.179-9.86 11.603-11.327 17.456l-10.662 42.543c-1.01 4.029 1.957 7.97 0.762 11.159 4.001 13.338 11.488 23.867 0.095 35.294-8.541 8.569-20.835 8.631-29.889 15.453-2.475 1.866-11.647 10.607-12.374 13.163-0.312 0.078-1.495 1.257-1.713 1.431l-6.34 10.569 1e-3 1e-3c0.581 2.547-4.389 10.017-1.275 13.373 7.179 7.732 0.289 10.116-6.092 16.693-4.724 5.728-7.235 4.587-7.235 13.068 0 11.082-5.191 15.866 5.235 24.706 7.951 6.743 10.278 6.169 19.419 9.824 7.647 3.058 8.424 3.491 15.802-0.572 8.053-4.434 14.717-0.114 19.514 6.678 6.38 9.035 18.09 0.476 25.986 0.476 2.772 1.489 6.73 1.044 9.9 2.766 6.081 3.302 7.762 6.462 14.659 3.911 3.223-1.191 10.333 2.435 12.945 4.293 3.798 2.699 4.713 12.091 6.663 16.502 2.89 6.534 11.128 13.994 16.658 18.41 3.495 4.383 9.508 6.823 13.326 11.16 2.782 3.162 5.169 6.688 9.805 5.246 10.344-3.216 14.701-2.388 20.656 6.868 1.398 2.172 3.555 5.353 5.617 6.868 4.104 3.014 8.371 1.06 6.187 8.203-0.804 2.63-2.974 6.422-1.904 9.253 2.086 5.51 3.915 5.454 0.857 12.019-0.743 1.594-14.87 9.377-17.324 10.778-0.624 0.55-3.547 2.781-2.285 3.625 4.058 2.712 2.385 2.735 3.522 6.677 0.714 2.477 1.23 7.272 3.141 8.967 1.531 1.357 6.055 0.507 8.377 2.004 4.829 3.111 5.624 5.205 11.422 7.058 2.299 0.735 4.938 13.249 7.9 16.788 3.073 3.669 7.232 1.478 11.137 2.099 4.563 0.726 2.444 4.718 5.045 6.582 4.409 3.314 9.908 0.309 14.469 3.053 7.532 4.531 11.242 9.137 20.37 11.828 6.1 1.797 11.568 6.681 17.134 7.822 4.365 0.896 8.603-0.033 9.9 4.198 3.466 11.292 11.74 1.741 15.707 7.249 1.49 2.069 1.436 5.239 3.332 7.727 2.852 3.741 6.996 2.907 11.137 4.293 4.704 1.914 3.779 4.925 10.47 5.818 5.272 0.702 3.712 2.184 3.712 6.773 0 7.605 3.936 9.355 5.426 16.693 1.285 6.324 4.853 10.207 11.422 10.207 5.26 0 3.811 2.224 6.473 5.723 3.078 4.048 9.908 8.935 14.087 11.828 6.09 4.218 13.482 1.211 20.465 6.295 2.214 2.413 6.95 4.392 6.95 8.204 0 1.48-2.28 7.577-3.427 8.394-2.028 1.443-6.067 0.478-6.95 2.861-1.69 4.567-3.221 9.985-7.139 13.163-5.631 4.571-3.58 1.511-0.38 6.678 2.799 4.522-4.986 6.231-0.476 11.828 5.544 6.879 10.67 13.197 18.372 18.028 6.453 3.232 10.508 0.406 11.707 10.11 3.474 2.486 6.898 1.773 10.471 3.816 1.622 11.465-22.609 13.888-13.898 24.8 3.523 0.506 7.883-7.302 11.899-4.006 8.022 6.587 8.142 15.249 20.465 18.315 10.746 2.674 17.655-5.304 27.795 3.72 9.532 5.141 5.21 17.873 18.372 16.121 4.14-0.551 4.453 2.129 6.663 5.151 4.826 6.598 13.993-2.46 17.419 5.628 3.13 7.392 4.256 6.746 11.232 5.723 1.18-0.173 7.092 2.86 8.662 3.53 2.5 1.064 0.921 3.433 1.713 5.818 1.3 3.917 8.541 3.814 10.947 7.727 2.588 4.208 3.061 9.673 3.427 14.499 0.414 5.012 2.849 3.815 6.95 3.815 3.005 3.614-0.495 11.968-1.713 15.929-2.392 7.772-6.845 16.614-0.953 24.037 1.629 2.053-0.25 8.061 0.857 11.543 0.308 0.969 0.612 1.879 0.916 2.768l273.85-158.11 138.57-80.005zm-547.18-182.52l-176.89-57.476 176.89-57.476v-185.99l109.32 150.47 176.89-57.476-109.33 150.47 109.32 150.47-176.89-57.476-109.32 150.47v-186z" fill="#0F47AF"/>
	<polygon points="574.32 924.6 751.21 982.08 641.89 831.6 751.21 681.13 574.32 738.6 465 588.13 465 774.13 288.1 831.6 465 889.08 465 1075.1" fill="#FCDD09"/>
</svg>