<?xml version='1.0' encoding='utf-8'?>
<svg xmlns="http://www.w3.org/2000/svg" enable-background="new 0 0 1720.685 1680.318" version="1.1" viewBox="0 0 1720.685 1680.318">
	<path d="m1105.1 1640c0.332 0.107 0.689 0.146 1.084 0.088 0.147-0.022 0.288-0.052 0.424-0.088h-1.508z" fill="none"/>
		<rect transform="matrix(-.8321 .5547 -.5547 -.8321 2038.7 2018.5)" x="704.02" y="1317.9" width="19.516" height=".003" fill="none"/>
	<polygon points="736.02 1303.1 736.03 1303.1 1092.1 1065.7" fill="none"/>
	<polygon points="1142.7 270.83 1142.6 270.82 627.31 614.38" fill="none"/>
	<path d="m1142.6 270.82l-397.11-224.53-11.181 2.89-0.257-7.716-13.724 0.233-447.86 1.474c-3.034-2.044-6.527-3.014-10.703-3.014-3.645 0-5.479 1.572-8.909 2.43-10.338 2.584-16.198 4.859-25.917 8.908-4.859 2.025-7.694 4.049-13.161 4.049-2.207 0-4.312-0.334-6.334-0.753-1.012 3.089-1.158 2.576-1.158 5.815 0 1.924 0.355 3.138 1.215 4.86 0.405 0.861 0.608 1.721 1.418 2.227 1.671 1.114 3.089 0.86 4.859 1.822 0.912 0.506 1.064 1.468 1.418 2.43 0.911 2.481 1.316 3.999 2.227 6.479 1.063 2.834 2.834 4.201 2.834 7.238v4.353c0 1.771 1.367 2.633 2.835 3.593 2.177 1.468 3.441 2.38 5.669 3.645 1.519 0.86 2.43 1.619 4.049 2.227 2.227 0.81 3.696 0.911 5.67 2.227 2.329 1.57 3.442 2.885 5.67 4.656 1.215 0.963 1.974 1.57 3.037 2.633 0.253 0.253 0.659 0.253 0.81 0.607 0.557 1.114 0.304 1.975 0.405 3.24 0.152 2.227 0.203 3.493 0.607 5.67 0.253 1.315 0.81 1.974 1.619 3.037 1.368 1.822 1.823 3.24 3.442 4.859 0.811 0.81 1.57 1.114 2.227 2.025 1.215 1.62 1.316 2.937 2.025 4.86 0.456 1.266 1.165 1.923 1.418 3.24 0.659 3.392 0.557 5.416 0.81 8.908 0.304 3.797 0.81 5.923 0.81 9.719 0 3.493-0.556 5.416-0.81 8.909-0.101 1.721 0.203 2.733 0.203 4.454 0 3.089-0.759 4.809-1.822 7.694-0.253 0.76-0.86 0.911-1.215 1.619-0.658 1.215-1.114 2.025-1.822 3.24 0.81-0.05 1.214-0.202 2.025-0.202 0.456 0 0.658 0.456 0.81 0.81 0.304 0.557 0.456 1.012 0.607 1.619 0.355 1.266 0.608 2.076 1.215 3.24 1.215 2.329 2.481 3.746 4.049 5.872 0.507 0.911 1.165 1.266 1.823 2.025 1.721 1.923 2.125 3.493 3.441 5.669 0.811 1.368 2.025 2.025 2.025 3.645 0 0.506-0.506 0.607-0.81 1.012-0.404 0.557-0.86 0.861-1.215 1.418-0.708 1.063-0.658 2.025-1.012 3.239-0.556 1.924-0.961 3.089-1.822 4.86-1.923 3.847-3.088 6.226-3.442 10.529l1.823 12.959c-0.203 1.266-0.962 1.974-2.025 2.632-1.266 0.76-1.873 1.519-3.038 2.43-1.265 1.012-1.973 1.619-3.037 2.834-0.961 1.114-1.315 2.633-2.834 2.633-1.62 0-2.581-0.405-4.049-1.012-0.405-0.152-0.507-0.556-0.811-0.811-1.619-1.417-2.682-2.632-4.859-2.632-1.265 0-2.43-0.101-3.24 0.81-0.404 0.456-0.354 1.064-0.607 1.62-0.405 0.962-0.658 1.57-1.215 2.429-0.658 1.012-1.366 2.025-2.633 2.025-2.227 0-3.441-0.81-5.669-0.81-2.126 0-3.392 0.708-5.264 1.62-1.266 0.607-2.214 0.914-3.429 1.622h-1e-3c-1.62 0.811-2.443 1.718-3.658 3.034-0.203 0.253-0.607 0.304-0.81 0.608-0.354 0.506-0.354 1.063-0.607 1.619-0.355 0.708-1.063 0.911-1.418 1.619-2.177 3.898-2.48 6.581-4.455 10.529-1.873 3.746-2.682 6.024-4.656 9.719-1.063 1.975-2.075 2.937-3.241 4.86-0.556 0.911-0.961 1.619-1.619 2.429-0.455 0.557-1.418 0.659-1.418 1.418 0 1.012 1.064 1.215 1.823 1.822 0.81 0.608 0.962 1.823 2.025 1.823 0.404 0 0.303-0.658 0.607-0.811 0.861-0.506 1.468-0.859 2.43-1.214l7.289 1.619c-0.708 1.721-1.721 2.53-3.037 3.847-1.418 1.418-1.974 2.531-3.24 4.049-1.67 1.975-2.986 3.089-4.049 5.467-1.114 2.43-1.316 4-2.227 6.479-0.455 1.215-0.556 2.025-1.012 3.24-0.354 1.064-1.012 1.671-1.012 2.834 0 1.215 1.114 1.671 2.025 2.43 2.126 1.822 3.341 3.037 5.467 4.859 1.468 1.267 2.379 2.178 3.644 3.645 0.557 0.659 1.164 0.911 1.62 1.62 0.557 0.81 0.81 1.822 1.822 1.822 0.456 0 0.506-0.556 0.81-0.811 0.608-0.506 0.911-0.859 1.62-1.214 0.911-0.507 1.417-1.012 2.025-1.823 0.708-0.961 1.417-1.417 2.43-2.025 0.962-0.556 1.67-1.215 2.834-1.215 1.873 0 2.834 1.165 4.455 2.025 1.266 0.659 2.125 1.114 3.24 2.026 0.303 0.253 0.708 0.253 0.81 0.607 0.303 0.861 0.1 1.57 0.404 2.43 0.355 1.012 1.064 1.468 1.823 2.227 0.86 0.86 0.962 1.822 2.025 2.429 0.253 0.101 0.556-0.05 0.81 0 0.355-0.607 0.607-1.062 1.012-1.619 0.405-0.556 0.659-1.418 1.417-1.418 0.709 0 1.013 0.456 1.62 0.81 0.911 0.507 1.57 0.861 2.43 1.418 1.164 0.76 1.822 1.823 3.24 1.823 0.607 0 1.012-0.355 1.619-0.405 1.57-0.152 2.481-0.051 4.049-0.203 1.367-0.151 2.178-0.607 3.442-1.012 2.178-0.708 3.544-0.962 5.67-1.822 1.215-0.507 1.822-0.709 3.037-1.215-0.962 2.885-2.835 3.898-4.657 6.277-1.062 1.418-1.518 2.53-2.43 4.049-0.859 1.418-1.619 2.329-1.619 4.049 0 1.822 1.822 2.43 3.442 3.24 0.911 0.456 1.215 1.418 1.418 2.43 0.303 1.57 0.152 2.683 1.011 4.049 0.153 0.304 0.659 0.304 0.811 0.607 0.506 0.811 0.557 1.468 0.607 2.43l-2.227 9.719c0.203 2.733 2.025 3.948 2.227 6.682-1.366 0.202-2.025 0.86-3.24 1.417-1.822 0.81-3.087 1.012-5.062 1.418-3.189 0.659-5.112 1.063-8.099 2.429-1.873 0.811-3.088 1.013-4.86 2.026-1.923 1.114-3.087 1.671-4.656 3.24-1.164 1.164-2.329 1.468-3.24 2.834-0.608 0.911-1.012 1.57-1.62 2.43 1.266 0.708 1.975 1.315 3.24 2.025 1.064 0.557 2.43 0.962 2.43 2.226 0 0.861-0.556 1.316-1.012 2.026-0.608 0.911-0.86 1.671-1.62 2.429-0.961 0.963-1.973 1.418-2.632 2.633-1.215 2.329-2.784 4.049-5.467 4.252-1.316 0.101-2.074 0.506-3.24 1.012-0.354 0.152-0.708 0.152-1.012 0.405-1.012 0.86-1.67 1.518-3.037 1.619-1.265 0.101-2.329-0.05-3.24 0.81-1.012 0.911-1.063 2.076-1.822 3.24-1.418-0.759-2.227-1.619-3.848-1.619-1.215 0-1.467 1.367-2.025 2.429-0.81 1.57-1.721 2.43-2.429 4.05-1.164 2.582-1.823 4.049-3.24 6.478-1.823 3.19-3.442 4.86-4.657 8.302-0.759 2.125-1.619 3.34-1.619 5.619v4.099c0.202 2.531 0.607 3.949 0.607 6.479 0 1.923-0.556 2.987-1.012 4.86-0.86-0.759-1.569-1.164-2.227-2.025-0.404-0.507-0.304-1.62-1.012-1.62-1.062 0-1.67 0.253-2.632 0.607-0.608 0.203-1.164 0.203-1.62 0.608-0.759 0.659-0.708 1.468-1.012 2.43-0.506 1.518-0.658 2.53-1.215 4.049-0.455 1.316-0.658 2.429-1.822 3.24-0.203 0.101-0.608 0.101-0.81 0.202-0.253 0.153-0.203 0.557-0.405 0.811-0.81 0.911-1.215 1.721-2.227 2.429-1.163 0.811-2.227 1.012-3.24 2.026-0.556 0.556-0.607 1.214-1.215 1.619-0.556 0.405-1.163 0.506-1.619 1.012-0.455 0.507-0.507 1.012-0.81 1.619-1.063 2.178-1.67 3.494-2.227 5.872-0.455 1.874-0.405 3.037-1.012 4.859-0.405 1.266-0.709 2.126-1.012 3.442-0.101 0.607-0.608 0.963-0.608 1.619 0 0.405 0.608 0.405 0.608 0.811 0 0.404-0.507 0.456-0.608 0.81-0.252 0.76-1.265 1.266-1.822 1.822-1.114 1.114-1.619 1.923-2.43 3.24-0.404 0.659-1.012 0.963-1.417 1.62-1.771 2.885-2.633 4.708-4.86 7.289-1.771 2.025-3.087 3.088-5.466 4.252-2.075 1.012-4.505 0.355-5.467 2.429-0.405 0.861-0.101 1.468-0.203 2.43-0.203 1.923-0.911 2.987-1.215 4.859-0.304 1.874-0.354 3.089-1.012 4.86-0.556 1.57-1.519 2.379-3.037 3.037-0.708 0.304-0.911 0.911-1.62 1.215-0.961 0.404-1.619 0.607-2.429 1.215-1.012 0.759-1.519 1.822-2.835 1.822-1.114 0-1.721-0.607-2.834-0.607-0.607 0-0.607 0.86-0.81 1.417-0.455 1.266-0.507 2.126-1.215 3.24-0.911 1.468-2.277 1.671-3.847 2.43-0.86 0.404-1.569 0.557-2.43 1.012-2.581 1.417-3.695 3.847-6.682 3.847-1.366 0-2.429-0.151-3.24-1.215-0.758-0.961-0.961-2.429-2.227-2.429-0.859 0-1.417 0.404-2.025 1.012-0.252 0.253-0.658 0.253-0.81 0.607-0.86 1.671-0.203 3.24-1.215 4.86-1.012 1.57-2.48 1.57-3.847 2.834-1.063 0.962-1.418 2.025-2.633 2.834-0.859 0.557-1.417 1.064-2.429 1.215-0.556 0.051-1.063-0.101-1.62 0-0.607 0.101-1.012 0.507-1.619 0.607-3.442 0.557-43.637-0.972-47.13-0.626l-0.513 11.318-9.246 22.464 1.027 29.153 8.047 28.637 24.112 64.201 6.83 23.564 1.708 27.321-5.806 20.149 1.708 36.884 9.636 24.743 15.066 25.208 22.258 21.264 26.367 18.177 14.5 16.651 460.73-307.15 515.34-343.55z" fill="#1EB53A"/>
	<path d="m1111.8 1637.3c1.619 0 2.429 1.214 4.049 1.214 1.315 0 2.028-0.899 3.24-1.214 1.117-0.292 2.227 0.1 3.24-0.405 0.607-0.303 0.22-1.283 0.81-1.619 2.246-1.283 4.542-0.422 6.479-2.025 0.998-0.827 0.728-2.211 1.62-3.241 0.424-0.489 1.195-0.32 1.62-0.81 0.891-1.028 0.909-2.127 1.619-3.24 1.617-2.531 3.24-3.543 5.264-5.669s3.138-4.455 6.074-4.455c0.811 0 0.91 1.018 1.62 1.215 1.112 0.309 2.129 0.595 3.24 0.81 5.165 0.999 8.403 1.215 13.768 1.215 2.228 0 3.738-0.218 5.669-1.215 1.207-0.623 1.823-2.025 3.24-2.025s1.634 1.812 2.43 2.834c1.329 1.71 2.333 3.129 4.455 4.049 3.244 1.408 4.948 2.649 7.694 4.86 4.544 3.66 9.19 2.241 14.782 4.252 2.493 0.896 3.644 2.632 6.276 2.632 2.835 0 4.556-0.256 7.29-0.81 1.265-0.256 2.012-0.589 3.239-1.012 0.245-0.083 0.558 0.101 0.811 0 0.759-0.303 1.164-1.012 2.025-1.012 1.164 0 1.87 0.563 2.834 1.215 0.907 0.613 1.622 0.96 2.43 1.62 0.306 0.251 0.299 0.615 0.607 0.811 0.806 0.512 1.523 0.649 2.43 1.012 2.383 0.952 3.944 1.448 6.479 1.822 0.552 0.082 1.012 0.405 1.619 0.405 0.709 0 1.009-0.463 1.62-0.81 0.906-0.513 1.411-0.966 2.025-1.822 1.563-2.18 2.535-3.638 4.859-5.062 1.725-1.056 2.993-1.204 4.86-2.025 1.928-0.848 2.582-2.835 4.708-2.835h5.567c1.266 0 2.077-0.194 3.29-0.404 1.115-0.194 1.42-1.26 2.43-1.823 1.622-0.904 2.392-1.755 3.847-2.834 3.049-2.261 5.415-2.686 8.908-4.252 2.833-1.269 4.76-1.62 7.289-3.442 3.442-2.479 6.033-5.272 5.467-9.516-0.269-2.026-0.54-4.05-0.81-6.075-0.643-4.825 4.299-6.53 4.86-11.339 0.147-1.266 0.318-1.973 0.405-3.24 0.066-0.96-0.236-1.514 0-2.43 0.219-0.856 1.168-0.856 1.822-1.417 1.117-0.958 1.424-2.021 2.227-3.24 0.564-0.856 0.935-1.506 1.417-2.43 0.126-0.241 0.012-0.643 0.203-0.81 0.671-0.593 1.468-0.39 2.429-0.405 2.33-0.035 3.646-0.758 5.67-1.822 1.923-1.011 3.594-0.153 5.669-0.81 1.923-0.609 2.885-1.823 4.91-1.823h7.998c1.923 0 2.986-0.607 4.91-0.607 2.278 0 3.544 0.911 5.669 1.619 1.822 0.608 2.987 0.405 4.911 0.405h3.949c1.619 0 2.533 0.291 4.099 0.608 2.938 0.594 5.381 1.664 6.479 4.454 0.218 0.552 1e-3 1.267 0.405 1.62s1.013 0.146 1.619 0.203c1.571 0.145 2.531 0.152 4.049 0.404 1.215 0.202 1.817 1.168 2.43 2.227 0.704 1.218 1.414 1.927 2.43 2.834 1.363 1.219 2.127 2.125 3.847 2.835 1.468 0.605 2.586 0.397 4.049 1.012 1.067 0.448 1.023 1.702 2.025 2.227 1.124 0.588 2.024 0.209 3.24 0.405 1.922 0.311 2.683 2.227 4.657 2.227 0.708 0 1.015-0.5 1.619-0.81 1.27-0.651 2.227-1.013 3.24-2.025 0.759-0.759 0.808-1.774 1.62-2.43 0.504-0.407 1.206-0.841 1.822-1.012 1.207-0.335 2.077-0.401 3.24-0.81 1.571-0.553 1.965-1.78 3.037-3.037 1.56-1.831 2.677-2.84 4.252-4.657 1.057-1.22 1.376-2.317 2.632-3.24 2.945-2.164 5.262-2.856 8.909-3.442 2.021-0.325 3.189-0.81 5.264-0.81 1.518 0 1.721 2.227 3.24 2.227s2.073-1.319 3.037-2.43c1.717-1.977 3.03-3.161 5.467-4.049 1.865-0.679 3.19-0.708 4.859-1.822 0.911-0.607 0.95-1.578 1.62-2.43 0.444-0.565 0.961-0.913 1.417-1.417 1.466-1.621 2.53-2.843 4.657-3.442 1.466-0.413 2.483-0.287 4.05-0.405 3.139-0.235 4.961-0.607 8.1-0.607 4.1 0 6.429 0.404 10.529 0.404 6.176 0 9.618-0.583 15.793-0.404 2.561 0.074 3.948 0.513 6.479 0.607 1.57 0.058 2.58 8e-3 4.051 0.405 0.96 0.26 1.417 1.012 2.429 1.012 0.709 0 1.072-0.693 1.62-1.012 0.667-0.389 1.012-0.759 1.619-1.215 1.417-1.063 2.486-1.61 4.049-2.43 2.588-1.356 4.343-1.884 6.479-3.847 2.216-2.036 3.743-3.041 6.075-5.062 2.224-1.927 3.595-3.336 6.479-4.049 2.228-0.552 3.692-0.566 5.67-1.62 1.058-0.565 1.456-1.327 2.227-2.227 1.354-1.579 2.287-2.27 3.644-3.847 0.516-0.6 0.616-1.153 1.215-1.62 2.641-2.063 4.914-2.064 8.1-3.24 2.028-0.748 2.834-1.872 4.859-2.632 2.429-0.911 3.949-1.519 6.479-2.025 2.784-0.556 4.66 0.159 7.289-1.012 2.028-0.903 2.934-2.034 5.062-2.633 3.086-0.868 4.963-0.85 8.099-1.619 2.433-0.597 3.495-1.668 5.67-2.834 2.734-1.466 4.653-2.034 7.289-3.645 1.008-0.615 1.165-1.57 2.025-2.43 1.012-1.012 1.921-1.374 3.24-2.025 2.477-1.222 4.151-2.025 6.935-2.025 0.911 0 1.418 0.203 2.329 0.203 1.518 0 2.379-0.707 3.695-1.418 1.215-0.656 1.978-1.105 3.24-1.62 1.218-0.497 2.122-0.415 3.24-1.012 1.058-0.566 1.471-1.315 2.227-2.227 0.71-0.858 1.109-1.573 1.822-2.43 0.805-0.965 1.309-1.784 2.43-2.43 0.549-0.316 1.071-0.395 1.619-0.81 1.931-1.458 2.84-3.178 4.86-4.454 1.434-0.907 2.025-1.57 3.239-2.633 1.215-1.063 2.116-1.577 3.038-2.834 2.267-3.096 3.396-5.562 6.884-7.289 1.826-0.905 3.092-1.259 4.86-2.227 1.371-0.751 1.87-1.677 3.239-2.43 2.123-1.169 3.497-1.563 5.669-2.633 0.914-0.449 1.418-1.164 2.43-1.417 1.822-0.455 3.338 0.45 4.859-0.608 0.807-0.561 0.972-1.312 1.418-2.227 0.515-1.058 1.377-1.41 2.025-2.429 0.415-0.652 0.356-1.417 1.012-1.822 1.064-0.658 2.082-0.389 3.24-0.811 1.625-0.591 2.23-1.922 3.037-3.442 1.37-2.58 3.036-3.948 4.353-6.63-0.761-0.594-1.315-1.274-1.315-2.349v-5.771c0-1.315-1.012-1.872-1.012-3.188 0-1.418 2.43-1.418 2.43-2.834 0-1.012-0.608-1.468-0.811-2.43-0.456-2.025-0.86-3.24-1.822-5.062s-2.126-3.291-4.252-3.442c-0.304 0-0.506 0.203-0.81 0.203-1.975-0.152-2.278-2.126-3.24-3.848-0.355-0.708-0.911-1.012-1.418-1.62-1.974-2.329-3.189-4.353-6.277-4.859 0.608 4.099 3.442 5.466 5.873 8.706 1.114 1.519 1.619 2.633 2.834 4.049 0.507 0.608 1.215 0.86 1.418 1.62 0.05 0.252-0.052 0.556 0 0.81 0.455 1.722 0.658 2.835 0.81 4.657-0.911 0.05-1.468 0.203-2.379 0.203-0.708 0-0.961-0.608-1.67-0.608-1.468 0-2.177 1.012-3.645 1.012-1.012 0-1.874-0.253-2.429-1.012-0.608-0.81-0.304-1.62-0.608-2.632-0.203-0.659-0.557-1.012-0.81-1.62-0.203-0.557-0.203-1.063-0.405-1.619-0.355-0.963-0.962-1.417-1.214-2.43-0.304-1.215 0.252-2.025 0-3.24-0.659-3.24-4.303-3.24-6.075-6.074-1.063-1.721-0.911-3.037-1.822-4.859-0.507-1.013-1.164-1.519-1.822-2.43-2.329 2.074-2.279 4.354-3.848 7.086-1.266 2.177-3.392 2.177-5.872 2.633-1.012 0.202-1.671 0.607-2.734 0.607-2.278 0-3.948-2.075-3.948-4.353 0-3.037 1.822-4.556 1.822-7.593 0-1.62-1.923-2.025-3.441-2.429-2.178-0.608-3.594-0.76-5.67-1.62-1.874-0.76-2.936-1.367-4.859-2.025-1.012-0.354-1.772-0.557-2.633-1.215-1.164-0.911-1.923-2.025-3.442-2.025-2.126 0-2.328 2.43-3.644 4.049-0.152 0.203-0.557-0.101-0.81 0 0-2.582-0.557-4.252-1.823-6.479-1.468-2.581-2.177-4.505-4.454-6.479-0.608-0.507-1.064-0.659-1.62-1.215-2.329-2.329-3.847-4.202-7.086-4.86-1.874-0.355-2.987-0.456-4.859-0.81-1.013-0.203-2.227-0.557-2.227-1.62 0-0.861 0.151-1.368 0.202-2.227l-9.314-2.025c-2.227 0.556-3.644 0.607-5.669 1.619l-0.811-0.203c1.114-1.974 1.771-3.138 3.24-4.859 1.063-1.266 1.771-1.975 3.037-3.037 0.861-0.709 1.722-1.165 2.025-2.227 0.86-2.834 1.417-4.505 2.43-7.289 0.81-2.178 1.62-3.442 1.62-5.771 0-1.974 0-3.644-1.418-4.96-1.367-1.266-2.936-1.316-4.049-2.834-0.911-1.266-0.456-2.531-0.81-4.049-0.355-1.368-1.62-1.671-2.633-2.633-0.456-0.405-1.012-0.708-1.012-1.367 0-0.658 0.151-1.012 0.203-1.67 1.265-0.101 1.974-0.253 3.24 0-0.557-2.227-1.468-3.392-1.62-5.67-0.303-2.075-0.051-3.745-1.619-5.062-0.708-0.607-1.418-1.063-1.418-2.025 0-1.012 0.101-1.671 0.405-2.633 0.101-0.456 0.607-0.708 0.607-1.214 0-2.026-1.72-2.633-2.632-4.455-0.456-0.911-0.608-1.57-1.012-2.43-0.76-1.518-1.367-2.43-1.823-4.049-0.404-1.519-0.152-2.733-1.012-4.049s-2.481-0.81-3.847-1.62c-1.519-0.911-1.874-2.177-2.43-3.847-0.506-1.619-0.506-2.785-1.619-4.049-0.456-0.507-1.064-0.607-1.62-1.012-0.759-0.557-1.214-1.418-2.226-1.418-0.811 0-1.215 0.405-2.026 0.405-0.506 0-0.759-0.253-1.214-0.405 0.151-0.506 0.303-0.861 0.405-1.417 1.366 0 2.227 0.607 3.442 0 1.569-0.76 1.468-2.38 2.43-3.848 0.86-1.266 2.48-1.114 3.24-2.43 0.81-1.417 0.81-2.581 0.81-4.252 0-2.429-0.052-3.897-0.608-6.277-0.202-0.962-0.86-1.468-1.012-2.429-0.051-0.405 0.304-0.76 0.304-1.215 0-0.203-0.304-0.203-0.304-0.405 0-1.518 0.405-2.329 0.405-3.847 0-3.392-1.418-5.215-2.227-8.504-0.405-1.62-0.659-2.633-1.418-4.049-0.506-0.963-0.81-1.62-1.214-2.633-0.557-1.266-1.316-1.873-1.62-3.24-0.253-1.114 0.203-1.822 0.203-2.986v-4.707c0-1.165-1.367-1.367-2.43-1.823-1.417-0.607-1.367-2.328-2.834-2.834-0.355-0.101-0.406-0.607-0.81-0.607-0.356 0-0.456 0.404-0.811 0.404-0.152 2.531-1.214 3.848-1.214 6.378 0 1.114 0.607 1.722 1.417 2.531-0.607 0.05-0.962 0.203-1.57 0.203-1.518 0-2.227 0.859-3.492 1.62-2.227 1.366-2.733 3.189-4.252 5.264-0.557-2.379 0.051-3.797-0.607-6.074-0.405-1.468-1.417-2.178-1.417-3.746 0-1.822 0.405-2.936 1.215-4.555 0.506-1.012 1.215-1.671 1.215-2.835s-0.659-1.771-1.012-2.834c-0.557-1.519-0.709-2.53-1.215-4.049-0.608-1.822-0.861-2.987-1.215-4.86-0.203-1.164-0.405-2.632-1.619-2.632-1.62 0-2.279 1.62-3.898 1.62-0.304 0-0.455-0.203-0.759-0.203 0.911-0.911 1.163-1.772 2.025-2.633 0.607-0.607 1.114-0.911 1.619-1.62 0.203-0.304 0.811-0.203 0.811-0.608 0-1.164-1.266-1.822-2.43-1.822-1.519 0.05-2.329 0.203-3.847 0 0.859-1.721 2.025-3.037 3.948-3.037 1.265 0 1.822 0.962 2.733 1.822 0.86 0.81 1.367 1.366 2.227 2.227 1.569 1.569 2.075 2.734 3.24 4.657 0.405 0.658 0.405 1.619 1.215 1.619 1.417 0 2.277-0.607 3.645-0.81 2.632-0.405 4.555-1.316 5.871-3.645-0.304-0.253-0.253-0.658-0.608-0.81-1.417-0.659-2.531-0.253-4.049-0.607-2.328-0.557-2.936-2.582-4.05-4.657-0.607-1.164-1.215-1.923-1.417-3.24-0.254-1.518 0.1-2.53-0.203-4.049-0.304-1.57-0.709-2.531-1.215-4.049-1.975 0.455-2.126 2.227-3.645 3.442-1.114-1.267-1.164-2.531-2.227-3.848-0.202-0.303-0.303-0.607-0.607-0.81-0.203-0.101-0.607 0-0.81-0.203-0.709-0.708-1.012-1.418-1.012-2.429 0-1.671 0.81-3.442-0.608-4.252-0.861-0.456-1.468-0.557-2.429-0.811-1.975-0.557-3.138-1.063-4.86-2.227-0.708-0.456-1.619-0.708-1.619-1.619 0-0.81 0.405-1.215 0.405-2.025 0-0.76-0.911-0.963-1.417-1.417-1.012-0.911-1.62-1.822-1.62-3.24 0-0.962 0.455-1.518 0.608-2.429 0.405-2.026 0.405-3.241 0.81-5.264-0.81-2.076-2.227-2.785-3.645-4.455-0.759-0.912-0.962-1.62-1.619-2.633-1.114-1.721-1.874-2.683-3.24-4.252-2.278-2.632-2.988-4.809-3.24-8.301-0.102-1.417-0.405-2.227-0.405-3.645 0-3.948 1.417-6.175 1.417-10.123 0-3.24-0.456-5.264-2.025-8.099-1.519-2.734-2.936-4.151-3.442-7.289 1.266 0.405 1.822 1.316 3.037 1.822 1.569 0.658 2.734 0.405 4.455 0.405 1.114 0 1.974 0.05 2.834-0.608 1.063-0.81 1.266-1.974 1.823-3.24 0.81-1.873 1.062-3.088 1.62-5.062 1.063-3.745 1.114-6.277 3.24-9.516 0.81-1.266 1.67-2.025 2.227-3.442 1.822-4.404 1.72-7.441 3.847-11.744 0.759-1.569 0.911-2.632 1.62-4.252 1.366-3.088 2.025-5.113 2.025-8.504 0-1.923-0.405-3.037-1.012-4.859-0.304-0.911-0.203-1.57-0.608-2.43-0.658-1.315-1.417-2.126-1.417-3.644 0-3.037 2.126-4.304 2.632-7.289 0.556-3.24 0.507-5.163 0.507-8.453v-8.555h-2.076c-0.708 0-1.012 0.556-1.67 0.81-1.367 0.556-2.328 1.012-3.847 1.012-1.721 0-3.037-1.164-3.442-2.834-0.557-2.329-2.481-2.936-3.037-5.264h-1.62l-3.24 1.417c-0.861-0.962-1.064-1.822-1.417-3.037-0.253-0.911-0.607-1.468-0.607-2.429 0-0.963 0.202-1.62 0.607-2.43 0.152-0.355 0.81-0.203 0.81-0.607 0-1.368-1.315-1.823-1.822-3.037-0.963-2.38-1.418-3.898-1.822-6.479 0.404-2.633 1.518-4.455 1.822-7.087 0.304-2.885 0.151-4.555 1.012-7.289 0.405-1.266 0.455-2.126 0.81-3.442 0.354-1.315 0.912-1.923 1.215-3.239 0.405-1.722 1.164-2.683 2.43-3.848 1.062-0.962 1.771-2.025 3.289-2.025h3.797l0.203-1.619c-0.557-1.418-1.063-2.835-2.632-3.037-0.456-0.052-0.76 0.202-1.215 0.202-0.355 0-0.507-0.355-0.811-0.404 0.759-3.138 1.266-4.96 2.026-8.1 0.405-1.619 0.607-2.632 1.417-4.049 1.418-2.481 2.025-4.1 3.645-6.479 0.708-1.063 1.366-1.721 2.429-2.429 1.468-0.963 3.24-1.468 3.24-3.24 0-1.165-0.607-1.772-0.607-2.936 0-2.076 2.126-2.835 4.049-3.544 1.215-0.456 1.924-1.012 3.24-1.012 1.418 0 2.228 0.81 3.645 0.81 1.366 0 2.125-1.316 2.429-2.632 0.203-0.911-0.101-1.62 0.405-2.43 0.556-0.911 1.366-1.215 2.227-1.822 0.506 0.404 0.911 0.708 1.518 1.012v-3.393c0-3.796-0.911-5.921-0.911-9.718v-4.961c0-1.265 0.608-1.923 0.608-3.188 0-1.822-1.013-2.936-2.43-4.049-0.253-0.203-0.608-0.153-0.81-0.405-1.368-1.619-1.874-2.834-2.633-4.859-0.659-1.823-1.114-2.987-1.62-4.86-0.354-1.316-0.456-2.177-0.811-3.441-0.253-0.912-0.506-2.026-1.468-2.026h-7.592c-1.367 0-2.026-0.86-3.29-1.214-1.924-0.557-3.24-0.456-5.062-1.215-1.671-0.659-2.481-1.671-3.645-3.037-0.708-0.861-1.367-1.316-2.025-2.227-0.405-0.557-0.303-1.62-1.012-1.62-1.822 0-2.227 2.43-4.049 2.43-1.012 0-1.114-1.316-1.417-2.227-0.457-1.215-0.963-1.923-1.013-3.24-0.1-2.53 0.152-4.151-0.81-6.479-1.114 1.519-2.177 2.379-4.05 2.835-0.911-1.823-1.164-2.987-1.822-4.86-0.254-0.76-1.012-0.962-1.417-1.619-0.659-0.963-1.012-1.671-1.012-2.835 0-0.81 0.151-1.266 0.405-2.025 0.202-0.658 0.81-0.911 0.81-1.619s-0.659-1.064-1.012-1.62c-1.266-1.873-2.582-2.733-4.252-4.252-0.253-0.202-0.557-0.202-0.81-0.404-1.519-1.215-1.975-2.329-2.835-4.049-0.456-0.963-1.164-1.468-1.619-2.43-1.215-1.367-2.278-2.683-3.847-3.645-2.279-1.417-3.442-2.53-5.67-4.049-1.164-0.759-1.367-1.923-1.822-3.24-0.405-1.114-0.608-1.822-0.608-3.037-2.683 0.203-4.201 0.608-6.884 0.608-2.936 0-4.759-0.405-7.289-1.823-1.874-1.012-2.835-1.873-4.86-2.632-0.911-0.304-1.518-0.456-2.43-0.81-1.164-0.507-1.468-1.418-2.429-2.227-1.823-1.57-2.936-2.835-3.24-5.264-0.052-0.507 0.354-0.709 0.354-1.215 0-0.507-0.354-0.708-0.354-1.215 0-0.81 0.404-1.215 0.404-2.025 0-1.721-1.974-2.227-3.644-2.633-2.126-0.506-3.442-2.226-3.442-4.404v-0.746l-352.63 235.08-356.04 237.36c1.36 1.499 1.847 3.371 3.839 4.686 2.277 1.519 3.492 2.581 5.871 3.847 2.43 1.316 3.341 2.937 5.467 4.657 2.075 1.67 3.442 2.48 5.467 4.252 2.126 1.823 2.632 3.645 4.657 5.67 1.163 1.163 2.176 1.569 3.24 2.834 1.012 1.164 1.518 2.025 2.632 3.037 1.873 1.721 2.531 3.189 4.455 4.86 0.911 0.758 1.67 0.961 2.632 1.62 1.67 1.114 2.026 2.43 3.24 4.049 0.658 0.911 1.367 1.316 2.025 2.227 0.86 1.114 1.013 2.227 2.025 3.24 1.722 1.721 3.241 2.329 4.657 4.252 2.075 2.784 3.189 4.504 5.264 7.289 1.67 2.227 3.088 3.29 4.455 5.67 1.418 2.429 1.822 4.049 3.24 6.479 1.366 2.378 2.885 3.24 4.252 5.669 1.366 2.48 2.227 3.999 3.644 6.479 1.012 1.771 2.025 2.784 2.025 4.859 0 1.671-0.658 2.582-1.417 4.05-0.355 0.708-1.012 1.163-1.012 2.025 0 1.265 1.163 1.62 1.822 2.632 0.962 1.418 1.012 2.43 1.62 4.049 0.859 2.379 1.214 4.86 3.644 5.467l-1.215 5.264c0.101 0.811 0.507 1.215 0.608 2.025 0.101 0.962-0.101 1.468 0 2.43 0.101 0.81 0.859 0.911 1.214 1.619 0.556 1.063 0.608 1.974 0.608 3.24 0 2.227-0.253 3.442-0.405 5.67-0.051 0.608 0.101 1.063 0 1.62-0.456 2.329-1.114 3.544-1.619 5.872-0.456 2.176-1.215 3.442-1.215 5.67 0 3.695 4.859 4.403 4.859 8.099 0 1.163-0.81 1.67-1.417 2.632-0.557 0.86-0.912 1.57-1.418 2.43-0.506 0.81-1.114 1.366-1.114 2.378 0 1.267 0.101 2.43 0.101 3.696 1.012 1.266 1.316 2.329 2.43 3.442 0.455 0.455 1.062 0.608 1.619 1.012 0.304 0.203 0.304 0.658 0.608 0.81 0.556 0.304 1.214 0.355 1.822 0.608 1.265 0.556 1.873 1.518 3.24 1.822-0.709 0.962-1.418 1.619-1.418 2.834 0 1.569 1.012 2.481 2.227 3.442 0.86 0.658 1.771 0.86 2.227 1.822 0.101 0.253-0.052 0.556 0 0.811 0.658 2.328 1.215 3.644 1.215 6.074 0 1.163-0.811 1.67-0.811 2.834 0 0.709 0.86 0.86 1.418 1.215 0.86 0.556 1.569 0.911 2.025 1.822 0.556 1.114 0.608 1.974 0.608 3.24 0 1.519-1.418 2.126-1.418 3.645 0 0.86 0.81 1.215 1.012 2.025 0.304 1.215 0.405 1.974 0.405 3.24 0 1.67-0.963 2.48-1.418 4.049-0.253 0.911-0.203 1.468-0.203 2.43 0 0.708 0.81 0.911 0.81 1.619 0 0.405-0.506 0.455-0.607 0.81-0.152 0.556-0.203 1.012-0.203 1.62 0 1.163 1.215 1.67 1.215 2.834 0 1.519-0.861 2.277-1.418 3.645-2.025 4.909-4.808 7.137-6.681 12.148-0.608 1.67-1.418 2.633-1.418 4.455 0 1.114 1.163 1.417 2.025 2.025 0.608 0.405 1.114 0.81 1.215 1.62 0.051 0.608-0.203 0.962-0.203 1.57v4.96c0 0.607 0 1.114 0.405 1.57 0.658 0.759 1.518 0.455 2.429 0.81 1.367 0.556 1.924 1.468 3.038 2.43 0.252 0.202 0.556 0.202 0.81 0.404 1.163 0.962 1.316 2.126 2.025 3.442 0.556 1.012 1.366 1.418 1.822 2.43 0.101 0.252-0.152 0.607 0 0.81 0.405 0.506 1.012 0.455 1.62 0.607 3.492 0.86 5.213 3.24 6.681 6.479 0.556 1.266 0.86 2.278 1.823 3.24 1.214 1.215 3.239 1.467 3.239 3.24 0 0.354-0.355 0.507-0.404 0.81-0.253 1.063-0.607 1.722-0.607 2.835 0 1.214 1.113 1.67 2.025 2.429 2.227 1.924 3.896 2.481 6.478 3.848 1.215 0.658 2.075 0.911 3.24 1.62 1.418 0.86 1.771 1.974 3.038 3.037 0.911 0.759 1.721 1.063 2.429 2.025 1.215 1.62 1.215 2.937 1.823 4.86 0.555 1.67 1.569 2.429 2.226 4.049 1.012 2.531 1.771 4.049 2.633 6.682 0.203 0.607 0.607 0.911 0.607 1.569 0 4.153-0.088 7.215-0.147 10.618l-2e-3 0.098 57.45-2.041c1.215 0.507 2.025 0.658 3.24 1.012 0.405 0.101 0.455 0.607 0.811 0.81 0.859 0.556 1.417 1.164 2.429 1.417 1.139 0.332 1.922-0.093 3.044 0.154 0.145 0.157 0.266 0.306 0.398 0.453 0.336 0.378 1.563-0.636 2.025-0.405 1.18 0.59 1.822 2.025 3.24 2.025 1.417 0 1.822-1.619 3.239-1.619 1.418 0 2.13 1.312 3.24 2.025 1.724 1.108 3.043 3.378 4.86 2.43 1.742-0.909 0.404-4.455 2.429-4.455 2.329 0 3.341 1.62 5.67 1.62 2.227 0 3.443-1.005 5.67-1.214 3.138-0.297 6.083 0.206 7.693-2.43 1.729-2.83 2.438-4.857 3.645-8.099 0.413-1.111 0.304-2.227 0.81-3.24 0.507-1.012 1.311-1.745 2.43-2.025 0.501-0.125 1.111 0.489 1.62 0.405 1.313-0.219 1.929-1.197 3.239-1.619 1.829-0.589 3.041-1.111 4.455-2.43 1.623-1.514 2.652-2.521 3.645-4.455 0.93-1.812 1.923-3.644 4.049-3.644 3.037 0 4.455 2.43 7.289 3.24 4.252 1.214 11.339-3.268 11.339 1.215v2.125c0 1.923-1.619 2.835-1.619 4.759 0 1.417 1.934 1.589 3.24 2.025 2.338 0.779 4.158 0.788 6.479 1.62 3.045 1.091 4.959 1.725 8.099 2.429 2.732 0.613 3.847 2.43 6.074 4.049 1.114 0.81 2.019 0.922 3.24 1.62 3.031 1.731 6.885 2.43 6.885 5.973v11.541c0 2.632 0.306 4.99 2.429 6.378 1.26 0.824 2.43-1.215 4.05-1.215 2.531 0 3.949 0.811 6.479 0.811 5.568 0 8.302-3.645 13.87-3.645 3.746 0 5.872-0.201 9.618 0 1.923 0.103 2.939 0.625 4.859 0.405 1.622-0.186 2.43-0.507 4.05-0.507 2.227 0 2.244 2.922 3.644 4.556 0.422 0.492 1.132 0.478 1.62 0.81 1.41 0.961 2.357 2.692 3.775 3.152h1.507c2.091-0.561 2.964-2.747 5.246-2.747z" fill="#00A3DD"/>
	<path d="m1589.3 1069.1c0.659-0.81 1.064-1.468 1.418-2.43 0.911-2.429 0.86-3.948 1.215-6.479 0.456-3.29 2.227-4.808 3.847-7.693 0.608-1.165 0.911-1.975 1.417-3.24 0.557-1.418 1.012-2.178 1.417-3.645 1.064-3.696 1.012-5.871 1.417-9.719 0.102-1.012 0.557-1.468 0.81-2.429 0.81-2.886 0.709-4.657 1.215-7.694-0.354-0.051-0.405-0.608-0.81-0.608-0.81 0-1.012 0.912-1.62 1.418-1.265 1.063-2.176 1.569-3.644 2.227-0.608 0.252-1.265 0.252-1.62 0.81-0.758 1.114 0.254 2.126 0 3.442-0.102 0.658-0.506 1.012-0.81 1.62-0.759 1.366-0.961 2.53-2.227 3.441-1.822 1.316-3.492 1.722-4.656 3.645-0.556 0.961-0.759 1.974-1.823 2.429-1.214 0.507-2.074 0.507-3.239 1.013-1.722 0.758-2.531 1.619-4.05 2.834-0.252 0.203-0.556 0.203-0.81 0.405-1.366 1.163-2.277 1.77-3.847 2.632-2.126 1.164-3.442 2.227-5.872 2.227l-0.202 0.81c1.266 0.405 2.632 1.063 2.632 2.43 0 2.227-2.075 2.936-3.442 4.657-0.962 1.214-1.619 1.923-2.429 3.239-0.304 0.557-0.507 1.165-1.012 1.62-1.62 1.418-2.987 1.873-5.063 2.43-1.266 0.355-2.177 0.456-3.24 1.214-0.405 0.304-0.81 0.507-0.81 1.012 0 1.368 1.316 1.671 2.025 2.835 0.304 0.557 0.507 1.012 0.811 1.619 0.607 1.267 0.607 2.329 1.619 3.24 0.962 0.861 2.126 0.81 3.442 1.012 1.215 0.153 1.973 0.507 3.24 0.607 2.53 0.203 3.948 0.811 6.479 1.013 1.57 0.101 2.531 0.253 4.049 0.607 0.861 0.203 2.025 0.304 2.025 1.215 0 1.418-0.811 2.177-1.418 3.442-1.114 2.278-2.075 3.594-2.834 6.074l0.203 0.81c2.683-1.114 3.543-3.087 5.466-5.264 1.064-1.215 2.076-1.62 2.835-3.037 0.506-0.962 0.659-1.67 1.215-2.632 1.771-3.088 3.138-4.86 3.847-8.302 0.152-0.911-0.203-1.467-0.203-2.429 0-1.517 2.076-1.264 3.037-2.428z" fill="#00A3DD"/>
	<path d="m1498.7 796.61l-1.619 7.492c0.911 1.215 1.669 1.822 2.632 3.037 0.455 0.608 1.215 0.81 1.215 1.62 0 0.708-0.608 1.063-1.012 1.619-1.316 1.722-3.037 2.481-3.037 4.657 0 0.81 1.114 0.86 1.62 1.417 0.657 0.76 1.164 1.316 1.62 2.227 0.658 1.215 0.961 1.975 1.62 3.24 0.101 0.253 0.101 0.608 0.203 0.81 0.607 0.963 1.417 1.316 2.227 2.025 1.822 1.671 3.037 2.43 4.859 4.252l0.405 0.811c0-0.304 0.203-0.456 0.203-0.759 0-1.316-0.608-1.975-0.608-3.29 0-3.442 1.012-5.568 3.037-8.302 0.253 0.101 0.608-0.101 0.811 0 0.354 0.254 0.404 0.659 0.607 1.012 0.607 0.912 1.064 1.519 1.619 2.43 0.405 0.659 1.064 0.911 1.418 1.62 0.911 1.67 0.152 3.493 1.62 4.656 1.063 0.81 2.379 0.76 3.239 1.822 0.608 0.76 0.659 1.468 0.811 2.43 0.355 1.874 0.102 3.19 1.012 4.86 0.76 1.367 1.874 1.619 3.037 2.632 2.733 2.379 4.404 3.644 6.884 6.277 1.519 1.619 2.279 2.834 3.645 4.657 1.266 1.721 1.874 3.847 4.049 3.847 1.114 0 1.468-1.063 2.227-1.822 0.557-0.556 1.012-0.962 1.619-1.418 1.519-1.114 2.633-1.619 4.05-2.834 0.658-0.556 0.81-1.215 1.417-1.822 1.975-1.974 3.442-3.493 3.442-6.278 0-0.455 0.253-0.911 0-1.214-1.215-1.316-2.784-1.164-4.049-2.43-1.468-1.467-2.43-2.43-3.442-4.252-1.569-2.885-1.417-5.011-1.417-8.301 0-1.519-0.05-2.329 0-3.847 0.101-2.075 1.823-2.986 1.823-5.063 0-3.037-1.468-4.656-2.43-7.492-0.556-1.619-1.215-2.48-1.822-4.049-0.354-0.961-0.657-1.67-1.417-2.43-0.252 0.153-0.708-0.05-0.81 0.203-0.252 0.557-0.203 1.012-0.203 1.671v4.455c0 0.911-0.455 1.518-1.012 2.177-0.607-0.507-1.012-1.013-1.822-1.013-1.114 0-1.722 0.304-2.835 0.405-0.961 0.101-1.569 0.101-2.429 0.405-0.051-0.355-0.405-0.456-0.405-0.811 0-0.81 0.405-1.315 0.405-2.125 0-1.974-0.911-3.038-1.215-4.961 0-0.304 0.203-0.506 0.203-0.86v-3.138c0-1.974-0.051-3.392-1.215-4.911-0.86-1.163-1.721-1.721-2.43-3.037-0.759-1.467-0.759-2.53-1.417-4.049-0.555-1.265-1.214-1.973-1.822-3.24-0.553-1.107-0.939-1.8-1.31-2.91l-24.26 16.173 0.459 1.719z" fill="#00A3DD"/>
	<path d="m708.28 1324.7c2.733 1.518 3.24 3.696 5.264 6.074 0.708 0.861 1.114 1.57 2.025 2.227 1.367 1.012 2.799 1.299 4.335 2.234 1.234-1.393 1.335-2.608 1.942-4.177 0.608-1.468 1.012-2.429 1.012-4.049 0-5.774-0.743-9.356-0.955-14.505l-16.239 10.826c0.805 0.416 1.65 0.84 2.616 1.37z" fill="#00A3DD"/>
	<polygon points="1142.7 270.83 627.31 614.38 166.58 921.53 171.94 927.69 187.51 956.16 197.78 982.74 209.08 1003.8 212.12 1011.4 1240.2 325.98" fill="#FCD116"/>
	<path d="m1563.1 633.87c0 2.378-1.012 3.593-1.822 5.821-0.557 1.518-0.81 2.481-1.012 4.049-0.456 2.986-1.367 4.657-1.62 7.694 1.771-0.253 2.682-1.012 4.455-1.012 0.81 0 0.911 0.911 1.215 1.619 0.405 0.963 0.911 1.468 1.619 2.227 1.316 1.418 2.279 2.278 3.848 3.442 2.429 1.822 3.392 3.847 3.644 6.884-0.354 0-0.455 0.405-0.81 0.405-0.405 0-0.405-0.556-0.81-0.608-0.608-0.05-1.012 0.203-1.62 0.203-2.733-0.101-4.151-1.417-6.884-1.417-0.81 0-1.266 0.051-2.025 0.404 1.518 1.519 3.138 1.165 5.062 2.025 0.607 0.253 1.012 0.709 1.619 1.012 1.57 0.811 3.645 1.215 3.645 3.037 0 1.772-2.277 1.772-3.442 3.038-0.911 0.962-0.455 3.037-1.822 3.037-0.659 0-0.963-0.608-1.619-0.608-1.469 0-1.013 2.178-1.013 3.645 0 0.962 0 1.772-0.607 2.43-0.456 0.506-1.063 0.456-1.62 0.81-0.657 0.404-0.81 1.114-1.417 1.619-1.114 0.963-1.923 1.519-3.24 2.227-1.975 1.063-3.24 1.671-5.062 3.037-0.608 0.456-0.811 1.165-1.417 1.62-0.557 0.404-1.114 0.607-1.619 1.012-0.203 0.152-0.052 0.557-0.203 0.81 1.468 1.063 2.025 2.329 3.037 3.847 0.86 1.316 1.923 1.722 3.037 2.835 1.114 1.114 1.721 1.974 2.633 3.24 0.911 1.214 1.872 1.619 3.24 2.226 1.619 0.709 2.682 1.012 4.454 1.012 1.417 0 2.279-0.607 3.645-0.81 0.557-0.05 1.063 0.101 1.619 0 1.012-0.203 1.519-0.759 2.43-1.215 2.733-1.467 4.455-2.429 6.682-4.656 1.214-1.215 2.075-1.974 3.037-3.442 0.962-1.467 1.315-2.48 2.025-4.049 1.215-2.633 1.367-4.353 2.429-7.086 0.355-0.962 0.861-1.467 1.215-2.43 1.823-4.556 2.329-7.289 3.24-12.149 0.355-1.872 0.811-2.936 1.012-4.859 0.456-3.948 0.557-6.175 0.811-10.123 0.101-1.367 0.253-2.075 0.404-3.442 0.153-1.418 0.304-2.227 0.405-3.645 0.303-3.948 0.607-6.175 1.012-10.123 0.152-1.721 0.152-2.784 0.404-4.455 0.153-1.215 0.304-1.973 0.405-3.24 0.102-1.467 0.203-2.328 0.203-3.796 0-2.683-0.405-4.252 0-6.935l-1.012-0.202c-1.316 1.315-2.227 2.278-4.049 2.632-0.911 0.152-1.519-0.101-2.43 0.203-0.962 0.304-1.771 0.659-2.43 1.418-1.062 1.214-1.215 2.632-2.632 3.441-0.556-1.721-1.67-2.48-3.037-3.644-0.673-0.581-0.868-1.383-1.205-2.083l-16.006 10.671v2.397z" fill="#FCD116"/>
	<path d="m1522.4 778.39c-0.507-1.67-0.456-2.733-0.811-4.454-0.556-2.784-1.114-4.404-1.012-7.29 0-0.657 0.203-1.011 0.203-1.669v-6.378c0-3.037-0.708-4.759-1.822-7.543-0.911-2.277-1.418-3.695-2.834-5.669-0.608-0.86-1.569-0.962-2.228-1.822-0.404-0.507-1.163-0.811-1.417-1.418-1.721 0.253-2.834 1.215-3.442 2.834-0.506 1.468-0.051 2.481-0.203 4.049-0.051 0.81-0.607 1.215-0.607 2.025-0.101 2.076 0.406 3.24 0 5.264-0.253 1.267-0.456 2.076-1.012 3.24-0.101 0.253-0.051 0.608-0.203 0.81-0.405 0.507-1.063 0.709-1.619 1.013-1.166 0.708-2.026 1.164-3.24 1.822-0.76 0.404-0.76 1.417-1.62 1.619-1.063 0.253-1.721 0.203-2.834 0.203-0.81 0-1.215-0.203-2.025-0.405l-1.012 0.203c-0.153 1.874-0.253 2.987-0.405 4.86-0.102 1.266-0.607 1.923-0.607 3.189v4.91l4.599 17.109 24.26-16.173c-0.038-0.107-0.073-0.213-0.109-0.329z" fill="#FCD116"/>
	<path d="m1499.6 746.8c-0.76 1.823-0.405 3.089-0.607 5.062-0.304 2.937-1.418 4.506-1.418 7.442v2.48c0.455 0.052 0.759 0.203 1.215 0.203 0.455 0 0.506-0.506 0.81-0.81 0.86-0.86 1.569-1.367 2.633-2.025 0.659-0.405 1.619-0.608 1.619-1.418 0-0.911-0.859-1.215-1.215-2.025-0.354-0.86-0.404-1.467-0.404-2.43-0.087-2.731-0.382-4.741-2.633-6.479z" fill="#FCD116"/>
	<path d="m1444.7 830.62v-3.405c0-0.961 0.405-1.467 0.608-2.378 0.354-1.671 0.708-2.633 1.215-4.252 0.354-1.165 0.455-2.025 0.607-3.24 0.405-2.734 1.215-4.202 1.215-6.986 0-2.834-1.671-4.201-3.442-6.377-1.367-1.722-2.329-2.734-3.442-4.657-1.367-2.329-2.379-3.544-3.644-5.871-1.215-2.178-2.227-3.544-2.227-6.075 0-5.72 3.948-8.2 5.062-13.768 0.151-0.86-0.152-1.468-0.152-2.379v-10.022c0-0.355 0.456-0.455 0.557-0.759 0.303-0.709 0.252-1.316 0.607-2.025 0.759-1.368 1.62-1.923 2.43-3.24 1.315-2.126 1.923-3.442 3.037-5.67 1.417-2.886 2.936-4.252 4.049-7.289 0.203-0.557 0.203-1.063 0.405-1.619 0.404-1.064 1.214-1.671 1.214-2.835 0-1.772-0.81-2.683-0.81-4.455 0-3.34 2.48-4.758 4.657-7.289 1.418-1.671 2.227-2.834 3.037-4.859 0.354-0.911 0.556-1.57 1.012-2.43 0.101-0.253 0-0.607 0.203-0.81 0.455-0.456 1.114-0.203 1.619-0.607 0.507-0.405 0.759-1.012 1.012-1.62 0.709-1.721 0.203-2.986 0.405-4.859 0.354-2.886 0.556-4.657 1.62-7.289l0.405 0.607v-1.671c0-1.771-0.659-2.733-1.215-4.403 0.354-0.152 0.405-0.557 0.811-0.608 1.011-0.152 1.721 0.355 2.632 0 0.658-0.253 1.012-0.86 1.417-1.417 0.893-1.181 1.363-2.221 1.754-3.398l-887.96 591.97c0.056 0.117 0.111 0.234 0.168 0.349 1.114 2.227 1.114 4.05 3.037 5.67 1.975 1.671 3.544 2.177 5.872 3.24 1.367 0.608 2.481 0.911 3.441 2.025 2.531 2.936 5.012 3.847 8.707 5.062 1.62 0.507 2.43 1.215 4.049 1.822 0.557 0.203 1.064 0.203 1.62 0.405 0.962 0.355 1.367 1.215 2.43 1.215 0.708 0 1.113-0.607 1.619-1.012 1.468-1.265 2.481-2.43 4.455-2.43 1.266 0 1.367 1.822 2.632 1.822 0.658 0 1.012-0.404 1.62-0.607 1.164-0.354 1.974-0.607 3.24-0.607 1.873 0 2.986 0.607 4.859 0.607l-1.012 0.81c1.721 0.557 2.582 1.367 3.847 2.633 0.709 0.708 1.519 0.911 2.43 1.417 1.367 0.759 1.975 1.569 3.24 2.429 0.911 0.608 1.468 1.064 2.43 1.62 0.911 0.506 1.771 0.456 2.429 1.215 0.912 1.063 0.203 2.226 0.203 3.644 0 2.177 1.772 3.24 3.645 4.252 2.733 1.468 4.758 1.62 7.896 1.62 2.076 0 3.594 0.303 5.264-0.811 2.531-1.721 3.138-3.695 4.86-6.277 2.784 2.076 4.758 3.089 8.099 4.049 1.316 0.355 2.227 0.811 3.645 0.811 2.53 0 3.847-1.316 6.074-2.43 2.632-1.316 4.555-1.366 7.492-1.822 1.215-0.152 1.974-0.811 3.24-0.811 0.404 0 0.303 0.608 0.607 0.811 1.316 0.911 2.025 1.671 3.037 2.834 1.012 1.164 1.823 1.721 3.037 2.632 1.488 1.108 2.719 1.781 4.063 2.476l16.241-10.827c-0.035-0.854-0.057-1.745-0.057-2.703 0-1.114 1.265-1.316 2.227-1.822 1.215-0.659 2.075-1.063 3.24-1.822 2.48-1.671 4.455-2.633 6.884-4.455 0.782 0.391 1.357 0.866 1.829 1.386l356.04-237.36 352.63-235.08z" fill="#FCD116"/>
	<path d="m1578.1 619.65c-0.86-0.455-1.62 0.101-2.633 0.203-1.923 0.203-3.29-0.203-4.859-1.215-1.62-1.063-1.771-2.633-3.037-4.049-0.152-0.203-0.556-0.101-0.81-0.203l-3.645 14.578v2.513l16.006-10.671c-0.221-0.459-0.502-0.876-1.022-1.156z"/>
	<path d="m1472 690.39c0.912-3.189 1.67-4.96 2.835-8.099 0.303-0.911 0.81-1.468 1.012-2.43 1.114-4.607 2.784-7.492 6.681-10.123 0.86-0.557 1.468-0.81 2.43-1.215 1.418-0.608 1.873-1.671 3.24-2.43 0.607-0.303 1.114-0.355 1.619-0.81 0.507-0.456 0.608-0.963 0.811-1.62 0.354-1.011 0.607-1.721 0.607-2.834 0-1.57-1.215-2.329-2.43-3.24-0.355-0.253-0.405-0.607-0.81-0.81-1.417-0.708-3.441-0.81-3.441-2.43 0-0.708 0.859-0.81 1.417-1.215l3.24 1.215h2.531v-4.1c0-0.911 0.252-1.722-0.304-2.378-0.81-0.963-1.975-0.709-3.24-1.013-1.721-0.404-2.025-2.025-3.24-3.239-0.456-0.456-1.063-0.659-1.619-1.013 0.252-0.607 0.405-1.012 0.607-1.619l-0.406-1.619c0.203-0.203 0.102-0.76 0.406-0.811 1.467-0.404 2.581 0.253 4.049-0.203 1.063-0.303 1.417-1.214 1.822-2.226 0.86-2.076 0.912-3.544 1.62-5.67 0.304-0.963 0.81-1.418 0.81-2.43 0-0.607-0.861-0.759-1.417-0.81-0.912-0.152-1.469 0-2.43 0 0.708-2.834 0.354-4.455 0.81-7.289 0.101 0.05-0.101 0.404 0 0.404 0.354 0.101 0.607-0.051 1.012 0 0 1.823 0.101 2.937 0.608 4.657 0.961-0.203 1.771-0.557 2.227-1.418 0.556-1.063 0.253-2.025 0.608-3.24 0.556-1.974 1.316-2.936 2.025-4.859 0.658-1.772 0.759-2.986 1.215-4.859 0.556-2.227 1.062-3.393 1.417-5.67l-1.417-3.645c0.303-2.784 1.012-4.251 1.012-7.036v-2.633c0-0.354-0.203-0.506-0.203-0.86 0.101-1.063 0.81-1.468 1.215-2.429 0.38-0.878 0.582-1.633 0.813-2.361l-206.93-144.11c-0.659-2.784-2.481-4.403-3.847-6.885-2.329-4.151-2.886-6.884-4.049-11.541-0.659-2.632-1.722-4.252-3.848-5.871-0.81-0.607-1.266-1.266-2.227-1.62-1.518-0.607-2.632-0.657-4.049-1.417-0.708-0.354-0.607-1.114-1.215-1.62-1.012-0.86-1.873-1.215-3.24-1.215-1.671 0-2.632 0.608-4.049 1.418-0.962 0.557-1.367 1.418-2.481 1.418h-1.163v-4.91c0-1.57 0.607-2.582 0-4-0.355-0.86-1.064-1.417-2.025-1.417-0.709 0-1.012 0.556-1.62 0.81l0.203-0.81c0.962-1.67 1.923-2.379 2.834-4.05 1.62-2.936 2.278-4.96 4.455-7.491 1.822-2.126 3.289-3.088 5.264-5.063 1.468-1.467 2.581-1.973 4.049-3.441 0.658-0.658 1.418-1.063 1.418-2.026 0-1.721-0.507-2.733-0.607-4.454-0.203-2.937-0.153-4.657-0.811-7.492-0.303-1.266-0.759-1.974-1.012-3.24-1.012-4.91-0.81-7.997-1.619-12.959-0.507-3.188-0.355-5.111-1.62-8.099-0.81-1.923-2.025-2.633-3.644-3.848-0.911-0.657-1.417-1.265-2.43-1.822-1.874-1.012-3.037-1.467-5.062-2.227-4.151-1.569-6.176-3.442-9.719-6.074l-10.522-5.949-1028.1 685.38 7.75 19.223 10.615 23.837 4.623 20.577 8.56 9.774 10.273 28.467 10.609 20.578 19.775 26.065 11.215 10.975 13.783 2.401 4.929-3.831c0.861-0.659 1.172-1.418 2.032-2.075 0.304-0.203 0.203-0.81 0.608-0.81 2.126 0 3.088 1.316 5.062 2.025 0.911 0.304 1.619 0.151 2.632 0.203 1.064 0.05 1.62 0.506 2.43 1.214 1.367 1.164 2.633 1.671 3.442 3.24 0.253-0.1 0.659 0.203 0.81 0 0.152-0.202 0.051-0.607 0.203-0.81 0.76-0.911 1.619-1.417 2.834-1.417 1.418 0 2.227 0.607 3.645 0.607 1.063 0 2.025 0.051 2.632-0.81 0.203-0.304 0.456-0.456 0.608-0.811 0.253-0.556-0.304-1.113 0-1.619 0.303-0.557 1.012-0.557 1.619-0.81 0.708 1.114 0.911 1.974 1.418 3.24 0.708 1.67 2.075 2.227 3.644 3.037 0.861 0.455 1.468 1.012 2.482 1.012h3.948c3.289 0 4.606 2.378 7.339 4.252 2.329 1.569 3.746 2.784 6.479 3.442 0.963 0.203 1.874 0.252 2.43 1.012 0.355 0.455 0.304 1.062 0.405 1.62 0.303 1.215 0.456 1.974 0.607 3.24 0.303 2.633 0.203 4.1 0.203 6.732v5.872c0 0.304-0.203 0.506-0.203 0.76 0.203 1.113 1.468 1.163 2.43 1.822 1.315 0.86 1.923 1.721 3.037 2.834 0.203 0.203 0.152 0.658 0.404 0.81 1.418 1.063 2.633 1.012 4.05 2.025 0.607 0.405 0.658 1.063 1.214 1.62 0.811 0.81 1.316 1.569 2.43 1.822 1.215 0.304 2.076 0.252 3.24 0.607 2.936 0.962 4.809 1.823 7.289 3.645 0.911-0.911 1.418-1.468 2.227-2.43 1.316-1.518 2.227-3.037 4.252-3.037 1.114 0 1.772 0.455 2.834 0.608 0.963 0.151 1.671 0 2.633 0.203 1.315 0.303 1.974 1.011 3.24 1.417 1.518 0.507 2.53 0.81 4.049 1.215 1.873 0.507 2.986 0.911 4.859 1.418 1.316 0.354 2.227 0.404 3.442 1.012 1.215 0.607 1.418 1.822 1.418 3.188v4.151c0 1.266-0.355 1.924-0.203 3.19 0.659 5.264 2.582 9.87 7.694 11.136l13.566-3.24c2.227 0.354 3.441 0.556 5.669 0.81 1.267 0.152 2.025-0.051 3.24 0.203 1.57 0.304 2.683 0.405 4.049 1.215 1.671 0.962 1.671 2.734 3.24 3.848 1.114 0.81 2.076 1.113 3.24 1.822 1.874 1.163 2.886 2.074 4.86 3.037 2.986 1.468 5.163 1.215 8.504 1.215 2.834 0 4.505 0.101 7.289-0.405 1.266-0.203 2.025-0.659 3.24-1.012 1.771-0.506 2.986-0.506 4.859-0.607 1.012-0.052 1.62-0.101 2.632-0.203 0.811-0.052 1.267-0.557 2.026-0.405 1.164 0.252 1.367 1.467 2.025 2.43 1.671 2.48 2.429 4.151 4.859 5.871 2.126 1.519 2.987 2.885 4.455 5.063 0.607 0.911 0.708 1.822 1.619 2.429 2.481 1.62 3.949 2.48 6.682 3.645 1.266 0.556 1.923 1.114 3.24 1.62 3.948 1.519 6.53 2.025 10.782 2.025h8.2c1.823 0 2.633 1.367 3.897 2.633 1.772 1.771 2.785 2.885 4.86 4.252 1.619 1.062 2.429 2.075 4.252 2.834 1.569 0.658 2.582 1.012 4.049 1.822 2.177 1.266 3.493 1.823 5.669 3.037 1.368 0.759 1.671 1.873 3.037 2.633 1.368 0.759 2.583-0.203 4.05 0.203 1.822 0.506 3.138 2.126 4.656 3.24 1.823-0.912 2.076-2.279 3.442-3.645 0.507-0.507 0.963-0.861 1.418-1.418 0.506-0.607 0.607-1.62 1.417-1.62 1.238 0 1.729 1.161 2.262 2.283l887.96-591.97c0.23-0.694 0.432-1.432 0.675-2.275z"/>
</svg>